<svg width="183" height="31" fill="none" xmlns="http://www.w3.org/2000/svg"><path d="M30.926 14.215zm.024.334c.005.086.01.172.013.259-.003-.086-.009-.173-.013-.26zm-.094-1.017l-.003-.022.003.022zm.11 2.607zm.01-.344zm-.06-1.693l-.016-.185c0-.012-.003-.023-.004-.036l.02.221zm-.114-.96c0-.003 0-.007-.002-.011l.003.018-.001-.007zm.165 1.764l.008.242-.008-.242z" fill="#262262"/><path d="M2.23 7.491h2.315v-.638h5.088v-.639h5.088v-.639h5.088v-.637h5.089v-.64H4.792a15.564 15.564 0 00-2.563 3.193zm7.403-5.747h5.088v-.638h5.088V.621A15.52 15.52 0 007.25 2.383h2.384v-.639zM4.544 11.96v-.639h5.089v-.638h5.088v-.638h5.088v-.639h5.089v-.638H1.536A15.378 15.378 0 00.407 11.96h4.137zm0 3.83h5.089v-.638h5.088v-.638h5.088v-.64h5.089v-.638H.165a15.401 15.401 0 00-.137 3.193h4.516v-.639z" fill="#0E283D"/><path d="M30.946 16.502l-.015.226c.006-.075.01-.15.015-.226zm-.14 1.32l-.01.066.01-.066z" fill="#262262"/><path d="M9.632 28.558h5.089v-.64h5.088v-.638h5.088v-.637H4.732a15.54 15.54 0 003.522 2.553h1.379v-.638z" fill="#0E283D"/><path d="M30.858 17.453l-.01.065.01-.065z" fill="#262262"/><path d="M4.545 24.727h5.088v-.638h5.088v-.638h5.089v-.639h5.088v-.638H1.509a15.493 15.493 0 002.04 3.192h.996v-.639zm-.001-4.467h5.088v-.638h5.088v-.639h5.089v-.638h5.088v-.638H.157c.155 1.09.426 2.16.81 3.192h3.577v-.639z" fill="#0E283D"/><path d="M5.504 3.658c-.243.206-.48.419-.711.639h21.396a15.41 15.41 0 00-.711-.639H5.504z" fill="#2882C5"/><path d="M9.633 3.021v-.638H7.249A15.5 15.5 0 005.505 3.66h19.972a15.695 15.695 0 00-.809-.639H9.633z" fill="#09518F"/><path d="M14.72 2.383v-.639H9.634v1.277h15.033a15.64 15.64 0 00-.936-.638h-9.01z" fill="#7F2061"/><path d="M19.809 1.744v-.639H14.72v1.277h9.01a15.88 15.88 0 00-1.114-.638h-2.808z" fill="#D3652A"/><path d="M19.81 1.106v.638h2.807A15.368 15.368 0 0019.809.621v.485z" fill="#FCB457"/><path d="M4.544 8.129V7.49H2.229c-.25.413-.482.839-.693 1.277h27.907a15.294 15.294 0 00-.327-.638H4.544z" fill="#2882C5"/><path d="M9.633 7.49v-.638H4.544v1.277h24.573a15.333 15.333 0 00-.366-.639H9.633z" fill="#09518F"/><path d="M14.72 6.851v-.638H9.634V7.49H28.75c-.132-.217-.268-.43-.409-.639h-13.62z" fill="#7F2061"/><path d="M19.809 6.213v-.639H14.72v1.277h13.62c-.145-.217-.297-.43-.453-.638h-8.08z" fill="#D3652A"/><path d="M24.898 5.573v-.637h-5.089v1.276h8.08c-.164-.217-.333-.43-.507-.639h-2.485z" fill="#FCB457"/><path d="M24.898 4.299v1.276h2.484A15.605 15.605 0 0026.188 4.3h-1.29z" fill="#E26460"/><path d="M4.544 11.959H.407a14.452 14.452 0 00-.228 1.181l-.014.096h30.65l-.013-.09-.003-.017a15.943 15.943 0 00-.092-.531H4.544v-.639z" fill="#2882C5"/><path d="M9.633 11.959v-.639H4.544v1.277h26.163c-.014-.073-.027-.147-.042-.22-.029-.14-.06-.28-.092-.418H9.633z" fill="#09518F"/><path d="M14.72 11.322v-.638H9.634v1.277h20.94a15.24 15.24 0 00-.165-.639H14.721z" fill="#7F2061"/><path d="M19.809 10.684v-.64H14.72v1.278h15.687a15.14 15.14 0 00-.194-.639H19.81z" fill="#D3652A"/><path d="M24.898 10.045v-.639h-5.089v1.277h10.405c-.07-.214-.145-.427-.224-.638h-5.092z" fill="#FCB457"/><path d="M24.898 8.768v1.277h5.092a15.359 15.359 0 00-.546-1.277h-4.546z" fill="#E26460"/><path d="M4.545 16.428H.029c.025.43.068.856.129 1.277h30.664l.026-.188.009-.064c.016-.129.03-.258.044-.387H4.545v-.638z" fill="#2882C5"/><path d="M9.633 15.79H4.544v1.276h26.357a16.215 16.215 0 00.045-.565l.005-.073H9.633v-.639z" fill="#09518F"/><path d="M14.72 15.152H9.634v1.277H30.95l.001-.02c.005-.09.01-.18.013-.269l.003-.062a14.657 14.657 0 00.008-.287H14.72v-.639z" fill="#7F2061"/><path d="M19.809 14.514H14.72v1.276h16.255c.001-.096.003-.193.003-.29 0-.116-.002-.232-.004-.348H19.809v-.638z" fill="#D3652A"/><path d="M24.898 13.875h-5.089v1.277h11.166a.05.05 0 010-.005l-.008-.242-.004-.097a15.695 15.695 0 00-.013-.258l-.002-.036h-6.05v-.639z" fill="#FCB457"/><path d="M24.898 13.236v1.278h6.05c0-.014-.002-.027-.003-.04a20.206 20.206 0 00-.05-.594 15.43 15.43 0 00-.04-.349l-.002-.02a14.343 14.343 0 00-.039-.274h-5.916z" fill="#E26460"/><path d="M15.49 30.99c1.34 0 2.675-.173 3.97-.515h-7.942c1.296.342 2.631.515 3.972.514z" fill="#2882C5"/><path d="M9.632 29.197H8.254c1.036.549 2.13.977 3.264 1.277h7.943a15.392 15.392 0 001.9-.638H9.634v-.639z" fill="#09518F"/><path d="M14.72 28.559H9.634v1.276H21.36c.467-.19.921-.404 1.364-.638H14.72v-.638z" fill="#7F2061"/><path d="M19.809 27.92H14.72v1.277h8.004c.375-.2.74-.412 1.097-.639h-4.013v-.638z" fill="#D3652A"/><path d="M19.81 27.281v1.277h4.012c.37-.236.728-.488 1.076-.754v-.523h-5.089z" fill="#FCB457"/><path d="M24.898 27.283v.523a15.69 15.69 0 001.35-1.162h-1.35v.639z" fill="#E26460"/><path d="M4.544 20.898H.967c.162.436.343.861.541 1.277h27.963c.1-.21.196-.423.288-.638H4.544v-.639z" fill="#2882C5"/><path d="M9.633 20.26H4.544v1.277H29.76c.09-.21.173-.424.253-.639H9.632v-.638z" fill="#09518F"/><path d="M14.72 19.621H9.634v1.277h20.38c.078-.21.152-.423.221-.638H14.721v-.639z" fill="#7F2061"/><path d="M19.809 18.982H14.72v1.278h15.512c.068-.211.131-.424.19-.639H19.81v-.639z" fill="#D3652A"/><path d="M24.898 18.344h-5.089v1.277h10.615c.058-.212.113-.424.162-.64h-5.688v-.637z" fill="#FCB457"/><path d="M24.898 18.343v.639h5.69c.082-.36.152-.725.209-1.094l.01-.065.016-.118h-5.925v.638z" fill="#E26460"/><path d="M4.544 25.367h-.995c.37.448.765.874 1.183 1.277h21.515c.214-.206.422-.42.624-.638H4.544v-.639z" fill="#2882C5"/><path d="M9.633 24.729H4.544v1.277h22.327c.192-.208.379-.421.56-.639H9.633v-.639z" fill="#09518F"/><path d="M14.72 24.09H9.634v1.277H27.43c.172-.208.34-.421.5-.639H14.72v-.638z" fill="#7F2061"/><path d="M19.809 23.451H14.72v1.277h13.21c.154-.209.304-.422.449-.639h-8.571v-.638z" fill="#D3652A"/><path d="M24.898 22.813h-5.089v1.276h8.571c.14-.209.275-.422.404-.638h-3.886v-.639z" fill="#FCB457"/><path d="M24.898 22.812v.639h3.887c.247-.413.476-.839.686-1.277h-4.573v.638z" fill="#E26460"/><path fill-rule="evenodd" clip-rule="evenodd" d="M64.906 12.028v-1.85c0-3.112-1.5-5.168-4.742-5.168-3.214 0-4.713 2.056-4.713 5.169v10.63c0 3.114 1.5 5.17 4.713 5.17 3.243 0 4.742-2.056 4.742-5.17v-2.555h-2.22v2.673c0 1.85-.752 2.967-2.462 2.967-1.68 0-2.462-1.118-2.462-2.967V10.06c0-1.85.78-2.966 2.462-2.966 1.71 0 2.461 1.117 2.461 2.966v1.968h2.221zm-23.595 8.9c0 1.85.751 2.967 2.462 2.967 1.68 0 2.432-1.116 2.432-2.966V5.215h2.19v15.596c0 3.114-1.47 5.199-4.712 5.199-3.213.002-4.683-2.085-4.683-5.2V5.215h2.311V20.93zm10.867 1.998v2.848h-2.251v-2.848h2.25zm15.28-12.747c0-3.143 1.591-5.17 4.803-5.17 3.243 0 4.833 2.027 4.833 5.17V20.81c0 3.113-1.59 5.17-4.833 5.17-3.212 0-4.803-2.057-4.803-5.17V10.179zm2.312 10.75c0 1.88.81 2.966 2.491 2.966 1.71 0 2.492-1.084 2.492-2.967V10.061c0-1.849-.782-2.966-2.492-2.966-1.68 0-2.491 1.116-2.491 2.967v10.866zm16.24 4.816h2.25L91.593 9.24v16.533h2.221V5.214h-3.27l-3.331 16.419-3.454-16.418h-3.272v20.559h2.041V9.385l3.483 16.36zm19.151 0h-2.251l-3.482-16.36v16.389h-2.041V5.214h3.269l3.455 16.419 3.332-16.418h3.272v20.559h-2.222V9.24l-3.332 16.504zM118.94 5.01c-3.212 0-4.803 2.026-4.803 5.169V20.81c0 3.113 1.591 5.17 4.803 5.17 3.242 0 4.833-2.057 4.833-5.17V10.179c0-3.143-1.591-5.17-4.833-5.17zm0 18.885c-1.681 0-2.491-1.087-2.491-2.967V10.061c0-1.85.81-2.966 2.491-2.966 1.71 0 2.492 1.117 2.492 2.967v10.866c0 1.883-.781 2.967-2.492 2.967zm13.179-18.68c3.271 0 4.772 1.938 4.772 5.11v10.368c0 3.143-1.499 5.08-4.772 5.08h-4.924V5.216h4.924zm-.03 18.474c1.68 0 2.491-1.028 2.491-2.908V10.208c0-1.88-.811-2.908-2.521-2.908h-2.522v16.39h2.552zm10.536 2.085V5.214h-2.342v20.56h2.342zm6.066 0V7.3h-3.873V5.215h10.084V7.3h-3.872v18.474h-2.339zm10.774 0V5.214h-2.341v20.56h2.341zm11.077-11.454v2.056h-5.133v7.313h6.304v2.085h-8.645V5.214h8.645V7.3h-6.304v7.02h5.133zm12.428-3.612v-.558c0-3.113-1.501-5.14-4.682-5.137-3.154 0-4.653 1.968-4.653 5.14 0 3.061 1.966 4.626 3.819 6.1 1.648 1.311 3.205 2.55 3.205 4.708 0 1.853-.782 2.937-2.461 2.937-1.68 0-2.462-1.088-2.462-2.937V19.67h-2.191v1.175c0 3.113 1.501 5.14 4.713 5.14 3.211 0 4.742-2.027 4.742-5.14 0-3.06-1.969-4.625-3.827-6.102-1.658-1.318-3.227-2.564-3.227-4.739 0-1.824.721-2.908 2.401-2.908 1.681 0 2.402 1.088 2.402 2.937v.676h2.221z" fill="#020000"/></svg>