<svg width="50" height="50" fill="none" xmlns="http://www.w3.org/2000/svg"><path d="M19.568 44.5c-1.996 0-3.873-1.04-4.96-2.73-3.59-.149-6.392-3.047-6.392-6.586 0-1.22.342-2.404.995-3.454a7.959 7.959 0 010-13.461 6.51 6.51 0 01-.995-3.453 6.608 6.608 0 016.398-6.597c1.09-1.684 2.963-2.719 4.954-2.719a5.927 5.927 0 015.92 5.92v6.301H37.22a2.23 2.23 0 002.227-2.227v-2.292a1.85 1.85 0 01-1.358-1.781c0-1.019.829-1.847 1.847-1.847 1.019 0 1.847.828 1.847 1.847 0 .848-.577 1.565-1.358 1.781v2.292A3.209 3.209 0 0137.22 18.7H25.488v3.096h15.384a1.85 1.85 0 011.781-1.358c1.019 0 1.847.829 1.847 1.847a1.849 1.849 0 01-1.847 1.847 1.852 1.852 0 01-1.781-1.358H25.488v4.454h15.384a1.852 1.852 0 011.781-1.358c1.019 0 1.847.828 1.847 1.847a1.849 1.849 0 01-1.847 1.847 1.853 1.853 0 01-1.781-1.358H25.488V31.3H37.22a3.208 3.208 0 013.205 3.204v2.292c.78.215 1.358.933 1.358 1.782a1.849 1.849 0 01-1.847 1.847 1.849 1.849 0 01-1.847-1.847c0-.849.578-1.566 1.358-1.782v-2.29a2.23 2.23 0 00-2.227-2.227H25.488v6.3a5.927 5.927 0 01-5.92 5.921zm-4.453-3.71l.194.253c.9 1.552 2.492 2.48 4.259 2.48a4.949 4.949 0 004.942-4.944V11.421a4.949 4.949 0 00-4.942-4.943c-1.767 0-3.36.927-4.26 2.48l-.158.242a4.941 4.941 0 00.136 4.692l-.846.489a5.912 5.912 0 01-.793-2.96c0-.743.14-1.478.408-2.164-2.769.39-4.862 2.734-4.862 5.559a5.57 5.57 0 001.11 3.321l.334.452-.494.268a6.98 6.98 0 00-.37 12.07 6.573 6.573 0 015.042-2.342v.979a5.602 5.602 0 00-4.243 1.934l-.27.366a5.561 5.561 0 00-1.109 3.32c0 3.1 2.522 5.622 5.622 5.622l.3-.016zm24.821-3.08a.87.87 0 10.002 1.74.87.87 0 00-.002-1.74zm2.716-10.863a.87.87 0 10.002 1.74.87.87 0 00-.002-1.74zm0-5.432a.87.87 0 10.002 1.74.87.87 0 00-.002-1.74zm-2.716-10.863a.87.87 0 10.002 1.74.87.87 0 00-.002-1.74zM19.568 41.784v-.978a2.23 2.23 0 002.227-2.227h.977a3.208 3.208 0 01-3.204 3.205zm-4.074-2.716a3.888 3.888 0 01-3.883-3.883h.977a2.91 2.91 0 002.906 2.905v.978zm4.074-2.716a3.209 3.209 0 01-3.205-3.204 3.209 3.209 0 013.205-3.205v.979a2.23 2.23 0 00-2.227 2.227c0 1.229 1 2.227 2.227 2.227v.976zM11.87 25.906a3.181 3.181 0 01-.94-2.264c0-1.887 1.318-3.205 3.205-3.205.87 0 1.654.323 2.267.936l-.693.691a2.177 2.177 0 00-1.574-.649c-1.352 0-2.227.875-2.227 2.227 0 .593.232 1.152.652 1.573l-.69.69zm7.697-5.17v-.978c1.227 0 2.227-1 2.227-2.227 0-1.227-1-2.227-2.227-2.227v-.977a3.209 3.209 0 013.204 3.204 3.209 3.209 0 01-3.204 3.205zm3.204-9.315h-.977c0-1.228-1-2.227-2.227-2.227a2.23 2.23 0 00-2.227 2.227h-.978a3.209 3.209 0 013.205-3.205 3.209 3.209 0 013.204 3.205z" fill="#353535"/></svg>