<svg width="50" height="50" fill="none" xmlns="http://www.w3.org/2000/svg"><path d="M38.86 45.5H14.22c-5.36 0-9.72-4.362-9.72-9.72 0-5.825 5.226-10.628 11.04-9.835 2.683-4.614 6.186-6.764 11-6.764 7.48 0 12.56 6.821 12.791 13.36 3.548.216 6.169 2.861 6.169 6.318 0 3.725-2.916 6.641-6.64 6.641zm-2.035-.96h2.034c3.184 0 5.679-2.495 5.679-5.68 0-3.112-2.388-5.37-5.68-5.37a.48.48 0 01-.48-.48c0-6.214-4.756-12.867-11.838-12.867-4.53 0-7.811 2.086-10.327 6.564a.48.48 0 01-.5.238C10.354 26.038 5.46 30.42 5.46 35.78c0 4.83 3.929 8.758 8.759 8.758h1.625v-3.523a.48.48 0 01.48-.48h4.005a.48.48 0 01.48.48v3.523H31.86v-3.523a.48.48 0 01.48-.48h4.004a.48.48 0 01.48.48v3.523zm-4.004 0h3.042v-3.044H32.82v3.043zm-16.016 0h3.043v-3.044h-3.043v3.043zm10.864-8.382h-4.004a.48.48 0 01-.48-.48v-4.005a.48.48 0 01.48-.48h4.004a.48.48 0 01.48.48v4.004a.48.48 0 01-.48.48zm-3.523-.961h3.043v-3.043h-3.043v3.043zm-3.817.96h-4.004a.48.48 0 01-.48-.48v-4.004a.48.48 0 01.48-.48h4.004a.48.48 0 01.48.48v4.004a.48.48 0 01-.48.48zm-3.524-.96h3.043v-3.043h-3.043v3.043zM45.02 25.48h-4.004a.48.48 0 01-.48-.48v-4.004a.48.48 0 01.48-.48h4.004a.48.48 0 01.48.48V25a.48.48 0 01-.48.48zm-3.524-.96h3.042v-3.043h-3.042v3.043zm-5.819-7.047h-4.004a.48.48 0 01-.48-.48v-4.005a.48.48 0 01.48-.48h4.004a.48.48 0 01.48.48v4.004a.48.48 0 01-.48.48zm-3.523-.961h3.041v-3.043h-3.041v3.043zm-23.17.96H4.98a.48.48 0 01-.48-.48v-4.004a.48.48 0 01.48-.48h4.004a.48.48 0 01.48.48v4.004a.48.48 0 01-.48.48zm-3.523-.96h3.043v-3.043H5.46v3.043zM45.02 9.465h-4.004a.48.48 0 01-.48-.48V4.98a.48.48 0 01.48-.48h4.004a.48.48 0 01.48.48v4.004a.48.48 0 01-.48.48zm-3.524-.961h3.042V5.46h-3.042v3.043zm-21.835.96h-4.003a.48.48 0 01-.48-.48V4.98a.48.48 0 01.48-.48h4.004a.48.48 0 01.48.48v4.004a.48.48 0 01-.48.48zm-3.523-.96h3.043V5.46h-3.043v3.043z" fill="#353535"/></svg>