<svg width="50" height="50" fill="none" xmlns="http://www.w3.org/2000/svg"><path d="M40.272 45H7.5v-1.182h32.772V45zm-11.47-3.284H18.97c-3.94 0-7.144-3.212-7.144-7.16V21.42a.59.59 0 01.59-.59h22.94a.59.59 0 01.59.59v2.693h2.687a3.875 3.875 0 013.867 3.875v3.285a3.875 3.875 0 01-3.867 3.875h-2.71c-.302 3.673-3.38 6.568-7.122 6.568zM13.006 22.012v12.545c0 3.295 2.675 5.977 5.964 5.977h9.832c3.288 0 5.964-2.682 5.964-5.977V22.01h-21.76zm22.94 11.953h2.687a2.693 2.693 0 002.687-2.692v-3.285a2.693 2.693 0 00-2.687-2.692h-2.687v8.67zM31.03 18.136h-1.18V16.03c0-.863.203-1.726.587-2.496a4.425 4.425 0 000-3.933 5.632 5.632 0 01-.587-2.496v-.463h1.182v.465c0 .68.16 1.361.462 1.967a5.614 5.614 0 010 4.99 4.42 4.42 0 00-.462 1.967l-.002 2.105zm-13.109 0h-1.18V16.03c0-.863.204-1.725.589-2.496a4.425 4.425 0 000-3.933 5.617 5.617 0 01-.588-2.496v-.463h1.18v.465c0 .68.16 1.36.463 1.967a5.614 5.614 0 010 4.99 4.427 4.427 0 00-.464 1.967v2.105zm6.555-1.642h-1.18v-2.107c0-.862.203-1.724.588-2.495a4.425 4.425 0 000-3.933 5.617 5.617 0 01-.588-2.496V5h1.18v.465c0 .68.16 1.36.463 1.967a5.603 5.603 0 010 4.99 4.427 4.427 0 00-.463 1.967v2.105z" fill="#353535"/></svg>