<svg width="50" height="50" fill="none" xmlns="http://www.w3.org/2000/svg"><path d="M44.043 5.5H5.957a.458.458 0 00-.457.459v20.383c0 .254.204.459.457.459h38.086a.458.458 0 00.457-.459V5.96a.458.458 0 00-.457-.459zm-.457 5.047a4.607 4.607 0 01-4.117-4.13h4.117v4.13zm0 .916v9.368a5.52 5.52 0 00-5.032 5.053H11.445a5.517 5.517 0 00-5.032-5.053v-9.368a5.516 5.516 0 005.031-5.047h27.108a5.517 5.517 0 005.033 5.047zM10.532 6.417a4.607 4.607 0 01-4.118 4.13v-4.13h4.118zM6.414 21.748a4.606 4.606 0 014.118 4.136H6.414v-4.136zm33.055 4.136a4.606 4.606 0 014.117-4.136v4.136h-4.117zM25 8.045c-4.452 0-8.074 3.635-8.074 8.103S20.548 24.25 25 24.25s8.074-3.634 8.074-8.102S29.452 8.045 25 8.045zm5.737 3.822h-2.102c-.323-.999-.752-1.85-1.266-2.492a7.175 7.175 0 013.368 2.492zm-12.874 4.74h2.883a14.59 14.59 0 00.363 2.904h-2.433a7.15 7.15 0 01-.813-2.904zm7.594-4.74V9.04c.891.274 1.68 1.332 2.209 2.827h-2.209zm2.49.918c.224.88.36 1.867.393 2.904h-2.883v-2.904h2.49zM24.543 9.04v2.827h-2.209c.528-1.495 1.318-2.551 2.209-2.827zm0 3.745v2.904H21.66c.033-1.037.169-2.024.393-2.904h2.49zm-3.797 2.904h-2.883a7.15 7.15 0 01.814-2.904h2.432a14.59 14.59 0 00-.363 2.904zm.914.918h2.883v2.904h-2.49a13.515 13.515 0 01-.393-2.904zm2.883 3.821v2.827c-.891-.274-1.68-1.33-2.21-2.827h2.21zm.914 2.827v-2.827h2.209c-.53 1.496-1.318 2.552-2.209 2.827zm0-3.744v-2.904h2.883a13.597 13.597 0 01-.393 2.904h-2.49zm3.797-2.904h2.882a7.152 7.152 0 01-.814 2.904H28.89a14.5 14.5 0 00.364-2.904zm0-.918a14.598 14.598 0 00-.363-2.904h2.433a7.15 7.15 0 01.813 2.904h-2.883zm-6.623-6.314c-.514.643-.945 1.493-1.266 2.492h-2.102a7.175 7.175 0 013.368-2.492zm-3.368 11.053h2.102c.322 1 .752 1.85 1.266 2.492a7.176 7.176 0 01-3.368-2.492zm8.106 2.492c.514-.642.945-1.493 1.266-2.492h2.102a7.176 7.176 0 01-3.368 2.492zm-15.7-9.142a2.37 2.37 0 00-2.36 2.37 2.368 2.368 0 002.36 2.37 2.368 2.368 0 002.362-2.37 2.37 2.37 0 00-2.361-2.37zm0 3.822a1.452 1.452 0 010-2.905 1.452 1.452 0 010 2.905zm26.661-3.822a2.368 2.368 0 00-2.361 2.37c0 1.307 1.06 2.37 2.361 2.37a2.368 2.368 0 002.361-2.37c0-1.307-1.06-2.37-2.36-2.37zm0 3.822a1.452 1.452 0 010-2.905 1.452 1.452 0 010 2.905zm.433 12.767a2.273 2.273 0 010 3.197l-7.701 7.773c-.47.47-1.088.773-1.744.857l-9.183 1.143-1.159 1.163-.646-.65 1.27-1.274a.454.454 0 01.266-.13l9.339-1.164a2.094 2.094 0 001.21-.595l7.7-7.773a1.35 1.35 0 000-1.9c-.473-.473-1.228-.56-1.92.027l-7.98 6.541-.029-.034c-.52.44-1.184.716-1.916.716h-6.348v-.917h6.348a2.088 2.088 0 002.082-2.09.815.815 0 00-.813-.815H17.383c-3.249 0-5.89 2.651-5.89 5.911 0 .122-.05.24-.134.325L7.55 44.5l-.646-.65 3.677-3.69c.101-3.676 3.114-6.635 6.802-6.635h10.156c.952 0 1.727.777 1.727 1.732 0 .106-.02.206-.03.307l6.375-5.227c.339-.288.888-.634 1.559-.634.6 0 1.165.236 1.593.664z" fill="#353535"/></svg>