<svg width="50" height="50" fill="none" xmlns="http://www.w3.org/2000/svg"><path d="M26.718 24.803c.927 0 2.108-.275 3.173-1.352 2.13-2.154 1.086-4.777 1.04-4.887a.507.507 0 00-.275-.28c-.112-.044-2.706-1.103-4.836 1.053a4.6 4.6 0 00-.82 1.15 4.561 4.561 0 00-.819-1.15c-2.13-2.155-4.727-1.097-4.834-1.052a.514.514 0 00-.277.28c-.045.11-1.09 2.732 1.04 4.886 1.066 1.077 2.245 1.352 3.172 1.352.495 0 .91-.078 1.205-.154v19.31H11.24v-6.323c.296.076.71.154 1.203.154.928 0 2.11-.275 3.173-1.352 2.131-2.154 1.086-4.778 1.04-4.89a.511.511 0 00-.276-.278c-.109-.047-2.705-1.102-4.834 1.052a4.53 4.53 0 00-.82 1.15 4.512 4.512 0 00-.819-1.15c-2.13-2.153-4.726-1.1-4.834-1.052a.507.507 0 00-.277.279c-.046.11-1.09 2.735 1.04 4.89 1.065 1.074 2.246 1.351 3.173 1.351a4.84 4.84 0 001.204-.154v6.324H6.445V45H29.28v-1.04h-3.768v-9.364l2.705-2.734-.728-.736-1.977 2v-8.477c.296.076.71.154 1.205.154zM10.07 36.6c-.564.16-2.164.459-3.507-.898-1.347-1.36-1.052-2.97-.888-3.543.564-.16 2.164-.459 3.507.897a3.44 3.44 0 011.03 2.444c0 .04.002.074.003.111a3.968 3.968 0 01-.145.989zm1.172-1.1a3.436 3.436 0 011.03-2.444c1.349-1.363 2.942-1.062 3.507-.899.166.572.461 2.183-.888 3.545-1.349 1.364-2.941 1.062-3.507.9a3.838 3.838 0 01-.145-.99c0-.038.003-.073.003-.112zm14.273-12.985a3.436 3.436 0 011.03-2.444c1.346-1.362 2.942-1.062 3.505-.898.16.569.454 2.19-.887 3.545-1.348 1.363-2.942 1.065-3.506.898a3.826 3.826 0 01-.145-.988c0-.04.003-.074.003-.113zm-4.68.202c-1.347-1.363-1.051-2.974-.887-3.545.565-.167 2.158-.466 3.507.897a3.442 3.442 0 011.03 2.445c0 .038.003.073.003.11-.007.428-.085.78-.145.989-.566.169-2.16.468-3.507-.896zm20.156-10.9c.927 0 2.108-.275 3.172-1.351 2.132-2.154 1.087-4.777 1.041-4.887a.507.507 0 00-.276-.28c-.112-.045-2.706-1.104-4.836 1.052a4.53 4.53 0 00-.82 1.149 4.56 4.56 0 00-.818-1.149c-2.133-2.156-4.727-1.097-4.837-1.052a.512.512 0 00-.275.28c-.046.111-1.092 2.734 1.04 4.887 1.065 1.076 2.244 1.352 3.173 1.352a4.85 4.85 0 001.205-.154v15.689l-1.977-1.997-.728.734 2.705 2.735V43.96h-3.77V45h8.564v-1.04h-3.768V21.609l2.705-2.734-.728-.735-1.977 1.999v-8.475c.297.076.71.154 1.205.154zm-1.2-2.263a3.449 3.449 0 011.027-2.47c1.347-1.362 2.943-1.062 3.505-.897.16.568.454 2.188-.887 3.545-1.346 1.362-2.94 1.063-3.506.897a3.902 3.902 0 01-.143-1.017c0-.02.003-.036.003-.058zm-4.682.178c-1.349-1.364-1.054-2.974-.89-3.545.569-.166 2.16-.466 3.507.897a3.43 3.43 0 011.03 2.433c0 .046.002.088.004.134a3.907 3.907 0 01-.144.978c-.566.167-2.158.468-3.507-.897z" fill="#353535"/></svg>