<svg width="50" height="50" fill="none" xmlns="http://www.w3.org/2000/svg"><path d="M29.174 43.303l-.474-.791 4.88-2.708-3.274-5.458a.443.443 0 01.024-.495l4.716-6.32c2.62-3.51 4.003-7.644 4.003-11.961V7.565c0-.415-.223-.787-.596-.994a1.223 1.223 0 00-1.192 0l-7.213 4.004c-3.889 2.159-6.922 5.378-8.773 9.313l-3.334 7.086a.478.478 0 01-.433.27H10.95v5.434H10v-5.893c0-.252.213-.457.475-.457H17.2l3.208-6.817c1.933-4.11 5.103-7.474 9.165-9.728l7.213-4.004a2.192 2.192 0 012.14 0C39.6 6.151 40 6.819 40 7.565v8.006c0 4.508-1.447 8.829-4.183 12.494l-4.537 6.08 3.36 5.598c.064.104.08.23.048.345a.455.455 0 01-.222.278l-5.292 2.937zm.776-18.527a4.31 4.31 0 01-2.102-.546c-2.014-1.117-2.705-3.602-1.543-5.54 1.163-1.936 3.75-2.598 5.76-1.484a4.053 4.053 0 011.965 2.462 3.897 3.897 0 01-.42 3.078 4.17 4.17 0 01-2.56 1.889c-.364.095-.734.14-1.1.14zm.014-7.196c-1.13 0-2.23.563-2.835 1.569-.901 1.5-.364 3.424 1.194 4.29a3.37 3.37 0 002.48.315 3.232 3.232 0 001.983-1.464 3.017 3.017 0 00.327-2.383A3.139 3.139 0 0031.592 18a3.356 3.356 0 00-1.628-.42zM18.346 44.453c1.561-.76 3.242-1.676 3.87-2.725l.059-.099a3.86 3.86 0 00.418-3.057 4.023 4.023 0 00-1.953-2.446c-2.004-1.112-4.571-.45-5.726 1.474l-.058.099c-.63 1.046-.616 2.903-.52 4.582.015.252.234.434.501.431a.463.463 0 00.448-.481c-.05-.854-.18-3.123.392-4.077l.058-.099c.894-1.488 2.881-1.997 4.429-1.138a3.116 3.116 0 011.509 1.891c.223.804.11 1.643-.325 2.364l-.06.1c-.571.951-2.681 1.977-3.475 2.363a.449.449 0 00-.21.613c.084.16.251.252.425.252a.447.447 0 00.218-.047z" fill="#353535"/></svg>