<svg width="50" height="50" fill="none" xmlns="http://www.w3.org/2000/svg"><path fill-rule="evenodd" clip-rule="evenodd" d="M24 12c0 6.627-5.373 12-12 12S0 18.627 0 12 5.373 0 12 0s12 5.373 12 12zm-1 0c0 6.075-4.925 11-11 11S1 18.075 1 12 5.925 1 12 1s11 4.925 11 11z" fill="#FCB457"/><path d="M38 24c6.627 0 12-5.373 12-12S44.627 0 38 0 26 5.373 26 12s5.373 12 12 12z" fill="#FCB457"/><path fill-rule="evenodd" clip-rule="evenodd" d="M12 50c6.627 0 12-5.373 12-12s-5.373-12-12-12S0 31.373 0 38s5.373 12 12 12zm0-1c6.075 0 11-4.925 11-11s-4.925-11-11-11S1 31.925 1 38s4.925 11 11 11zm38-11c0 6.627-5.373 12-12 12s-12-5.373-12-12 5.373-12 12-12 12 5.373 12 12zm-1 0c0 6.075-4.925 11-11 11s-11-4.925-11-11 4.925-11 11-11 11 4.925 11 11z" fill="#FCB457"/></svg>