<svg width="50" height="50" fill="none" xmlns="http://www.w3.org/2000/svg"><path fill-rule="evenodd" clip-rule="evenodd" d="M34 16a16.017 16.017 0 006.123-1.218A16 16 0 0050 0H34v16zM48.967 1A14.998 14.998 0 0135 14.967V1h13.967zM15.5 34.5H0a15.503 15.503 0 009.568 14.32A15.5 15.5 0 0025 46.748 15.433 15.433 0 0034.5 50C43.06 50 50 43.06 50 34.5 50 25.94 43.06 19 34.5 19c-3.58 0-6.877 1.214-9.5 3.252A15.49 15.49 0 0015.5 19v15.5zm3.5 0c0-4.612 2.014-8.753 5.21-11.592a14.5 14.5 0 00-7.71-2.873V35.5H1.035A14.5 14.5 0 0024.21 46.092 15.462 15.462 0 0119 34.5z" fill="#FCB457"/></svg>