<svg width="50" height="50" viewBox="0 0 50 50" fill="none" xmlns="http://www.w3.org/2000/svg">
<path fill-rule="evenodd" clip-rule="evenodd" d="M49.9954 22.8721L50 22.8675L27.6325 0.5C27.3963 0.736189 27.1679 0.979488 26.9477 1.22948C25.7987 2.534 24.871 4.02084 24.2039 5.63116C23.4091 7.55007 23 9.60675 23 11.6838C23 13.7608 23.4091 15.8175 24.2039 17.7364C24.6988 18.931 25.3371 20.0577 26.1028 21.0923C23.348 18.8466 19.8313 17.5 16 17.5C7.16344 17.5 0 24.6634 0 33.5C0 42.3366 7.16344 49.5 16 49.5C24.8366 49.5 32 42.3366 32 33.5C32 29.9269 30.8288 26.6273 28.8492 23.9643C30.0324 24.9246 31.3505 25.7107 32.7636 26.2961C34.6825 27.0909 36.7392 27.5 38.8162 27.5C40.8932 27.5 42.9499 27.0909 44.8688 26.2961C46.4792 25.629 47.966 24.7013 49.2705 23.5523C49.5189 23.3335 49.7606 23.1067 49.9954 22.8721ZM25.1278 6.01384C25.7446 4.5249 26.5992 3.14866 27.6564 1.9381L48.5619 22.8436C47.3513 23.9008 45.9751 24.7554 44.4862 25.3722C42.6886 26.1168 40.7619 26.5 38.8162 26.5C36.8705 26.5 34.9439 26.1168 33.1463 25.3722C31.3487 24.6276 29.7154 23.5362 28.3396 22.1604C26.9638 20.7846 25.8724 19.1513 25.1278 17.3537C24.3832 15.5561 24 13.6295 24 11.6838C24 9.73807 24.3832 7.81143 25.1278 6.01384Z" fill="#FCB457"/>
</svg>
