<svg width="60" height="60" viewBox="0 0 60 60" fill="none" xmlns="http://www.w3.org/2000/svg">
<path fill-rule="evenodd" clip-rule="evenodd" d="M41 19C41.3339 19 41.6673 18.9912 42 18.9737C44.1534 18.8602 46.2743 18.3808 48.271 17.5537C50.5762 16.5989 52.6707 15.1993 54.435 13.435C56.1993 11.6707 57.5989 9.57617 58.5537 7.27099C59.3808 5.27427 59.8602 3.15338 59.9737 1C59.9912 0.667329 60 0.333883 60 0H41V19ZM58.9722 1C58.8597 3.02197 58.4066 5.01294 57.6298 6.8883C56.7252 9.07216 55.3994 11.0565 53.7279 12.7279C52.0565 14.3994 50.0722 15.7252 47.8883 16.6298C46.0129 17.4066 44.022 17.8597 42 17.9722V1H58.9722Z" fill="#FCB457"/>
<path fill-rule="evenodd" clip-rule="evenodd" d="M18.5 41.5H0C0 41.8341 0.00904811 42.1676 0.0270398 42.5C0.206068 45.8078 1.27064 49.0136 3.11781 51.778C5.15062 54.8204 8.03992 57.1916 11.4204 58.5918C14.8008 59.992 18.5205 60.3584 22.1092 59.6445C25.0019 59.0691 27.7048 57.8127 29.9994 55.9918C33.157 58.501 37.1535 60 41.5 60C51.7173 60 60 51.7173 60 41.5C60 31.2827 51.7173 23 41.5 23C37.1535 23 33.157 24.499 29.9994 27.0082C29.6056 26.6957 29.1982 26.3986 28.778 26.1178C26.0136 24.2706 22.8078 23.2061 19.5 23.027C19.1676 23.009 18.8341 23 18.5 23V41.5ZM23 41.5C23 35.9966 25.4031 31.0544 29.2172 27.6656C28.8949 27.4158 28.5631 27.1769 28.2225 26.9493C25.6225 25.212 22.6098 24.2066 19.5 24.0286V42.5H1.02859C1.20655 45.6098 2.21202 48.6225 3.94928 51.2225C5.87221 54.1003 8.60533 56.3434 11.803 57.6679C15.0007 58.9924 18.5194 59.339 21.9141 58.6637C24.5833 58.1328 27.0816 56.9889 29.2172 55.3344C25.4031 51.9456 23 47.0034 23 41.5Z" fill="#FCB457"/>
</svg>
