<svg width="160" height="40" fill="none" xmlns="http://www.w3.org/2000/svg"><path fill-rule="evenodd" clip-rule="evenodd" d="M16.148 9.882a8.423 8.423 0 012.44 5.927 8.3 8.3 0 015.889 2.455 8.414 8.414 0 012.439 5.93 8.414 8.414 0 01-2.44 5.928 8.298 8.298 0 01-5.887 2.456H1.936V7.424h8.326a8.306 8.306 0 015.886 2.458zm-5.886-.364H4.015l-.018 9.134c.078-.076.152-.152.225-.226.072-.074.144-.147.216-.217a8.227 8.227 0 015.824-2.4h6.234v-.378a6.318 6.318 0 00-1.954-4.199 6.233 6.233 0 00-4.28-1.714zm3.606 11.422a6.304 6.304 0 002.285-3.038h-5.89a6.226 6.226 0 00-3.607 1.157 6.295 6.295 0 00-2.284 3.04h5.89a6.235 6.235 0 003.606-1.159zm-9.853 9.553h14.574a6.227 6.227 0 004.437-1.8 6.315 6.315 0 001.874-4.431 6.316 6.316 0 00-1.787-4.468 6.229 6.229 0 00-4.4-1.887h-.388a8.427 8.427 0 01-3.836 5.122 8.291 8.291 0 01-4.227 1.164H4.015v6.3zm47.757-16.135c-1.868 0-3.573.998-4.877 2.147v-5.936h-1.251v14.888h.925l.247-1.97c1.322 1.163 3.049 2.152 4.956 2.152 2.423 0 4.507-1.872 4.507-5.638 0-3.767-2.084-5.643-4.507-5.643zm0 10.11c-1.832 0-3.45-1.109-4.877-2.444V17.87c1.428-1.273 3.044-2.338 4.877-2.338 1.732 0 3.234 1.464 3.234 4.468 0 3.003-1.502 4.467-3.234 4.467z" fill="#64708B"/><path d="M60.68 10.57h-1.246v2.12h1.247v-2.12zm0 3.97h-1.246v10.922h1.247V14.54z" fill="#64708B"/><path fill-rule="evenodd" clip-rule="evenodd" d="M69.408 14.358c-2.749 0-5.569 1.872-5.569 5.643 0 3.77 2.82 5.638 5.57 5.638 2.748 0 5.568-1.872 5.568-5.638 0-3.767-2.82-5.643-5.569-5.643zm0 10.11c-2.106 0-4.278-1.49-4.278-4.467 0-2.977 2.172-4.468 4.278-4.468 2.106 0 4.274 1.487 4.274 4.468 0 2.98-2.172 4.467-4.274 4.467zm14.887-10.11c-1.903 0-3.635 1.033-4.948 2.218l-.255-2.054h-.939v14.91h1.251v-5.878c1.322 1.132 3.01 2.085 4.878 2.085 2.427 0 4.507-1.872 4.507-5.638 0-3.767-2.067-5.643-4.494-5.643zm0 10.11c-1.829 0-3.45-1.109-4.877-2.444V17.87c1.427-1.273 3.048-2.338 4.877-2.338 1.731 0 3.233 1.464 3.233 4.468 0 3.003-1.502 4.467-3.233 4.467z" fill="#64708B"/><path d="M98.287 14.358c-1.899 0-3.524.958-4.877 2.13v-5.919h-1.247v14.888h1.247v-7.59c1.507-1.367 3.084-2.334 4.877-2.334 1.643 0 2.754.967 2.754 2.91v7.014h1.246v-7.013c0-2.733-1.616-4.086-4-4.086zm21.914 2.214l-.256-2.05h-.92v10.935h1.246v-7.572c1.133-1.26 2.357-2.352 3.908-2.352a3.25 3.25 0 011.322.271l.484-1.153a5.244 5.244 0 00-1.594-.271c-1.697 0-3.018.95-4.19 2.192zm21.173-2.214c-1.696 0-3.247 1.033-4.405 2.267-.564-1.513-1.881-2.267-3.525-2.267-1.643 0-3.057.98-4.194 2.138l-.264-1.974h-.925v10.935h1.251v-7.541c1.062-1.247 2.586-2.365 4.115-2.365 1.528 0 2.586.856 2.586 3.106v6.8h1.251v-7.013c0-.182 0-.35-.022-.52 1.062-1.26 2.599-2.39 4.132-2.39 1.534 0 2.591.856 2.591 3.105v6.818h1.247v-7.013c0-2.733-1.617-4.086-3.838-4.086z" fill="#64708B"/><path fill-rule="evenodd" clip-rule="evenodd" d="M110.98 14.358c-2.172 0-3.582.723-5.062 1.646l.621.971c1.665-1.038 2.612-1.49 4.406-1.49 1.643 0 2.938.86 2.938 3.251v1.393a7.809 7.809 0 00-4.207-1.37c-2.313 0-4.371 1.264-4.371 3.495 0 2.232 1.688 3.385 3.838 3.385 1.947 0 3.524-1.024 4.802-2.258l.26 2.076h.925v-7.013c-.013-2.733-1.771-4.086-4.15-4.086zm-1.595 10.154c-1.551 0-2.82-.745-2.82-2.258 0-1.512 1.203-2.369 3.084-2.369a7.36 7.36 0 014.208 1.46v.82c-1.34 1.292-2.816 2.347-4.472 2.347zm44.519-10.154c-2.172 0-3.582.723-5.062 1.646l.626.971c1.661-1.038 2.608-1.49 4.405-1.49 1.644 0 2.939.86 2.939 3.251v1.393a7.812 7.812 0 00-4.203-1.37c-2.313 0-4.371 1.264-4.371 3.495 0 2.232 1.688 3.385 3.838 3.385 1.947 0 3.524-1.024 4.802-2.258l.26 2.076h.925v-7.013c-.022-2.733-1.78-4.086-4.159-4.086zm-1.595 10.154c-1.551 0-2.819-.745-2.819-2.258 0-1.512 1.202-2.369 3.084-2.369a7.343 7.343 0 014.207 1.46v.82c-1.339 1.292-2.815 2.347-4.472 2.347z" fill="#64708B"/></svg>