<svg width="160" height="40" fill="none" xmlns="http://www.w3.org/2000/svg"><path d="M6.018 11.405H1.936V7.322h4.082v4.083z" fill="#8BB539"/><path fill-rule="evenodd" clip-rule="evenodd" d="M11.522 11.405h4.084V7.322h-4.084v4.083zm3.614-.47H11.99V7.791h3.145v3.144z" fill="#8BB539"/><path d="M21.111 11.405h4.082V7.322h-4.082v4.083z" fill="#8BB539"/><path fill-rule="evenodd" clip-rule="evenodd" d="M6.018 22.041H1.936V17.96h4.082v4.082zm-3.613-.469h3.143v-3.144H2.405v3.144z" fill="#8BB539"/><path d="M15.606 22.041h-4.084V17.96h4.084v4.082zm5.505 0h4.082V17.96h-4.082v4.082z" fill="#8BB539"/><path fill-rule="evenodd" clip-rule="evenodd" d="M6.018 32.678H1.936v-4.081h4.082v4.081zm-3.613-.469h3.143v-3.143H2.405v3.143zm13.201.469h-4.084v-4.081h4.084v4.081zm-.47-.469v-3.143H11.99v3.143h3.145z" fill="#8BB539"/><path d="M21.111 32.678v-4.081h4.082v4.081h-4.082zm21.941-7.927l5.764-17.429h6.065l-9.08 25.356h-5.843L30.9 7.322h6.184l5.967 17.43zM56.234 7.322h5.71v25.356h-5.71V7.322zm75.938 0v4.902h-13.288v5.325h13.288v4.902h-13.288v5.325h13.288v4.902h-19.007V7.322h19.007zm-42.134 0h20.735v4.902L97.586 27.776h13.186v4.902H90.037v-4.902l13.189-15.552H90.038V7.322zm-8.11 0h5.72v25.356h-5.68L71.072 17.283v15.395h-5.719V7.324h5.676l10.9 15.398v-15.4z" fill="#8BB539"/><path fill-rule="evenodd" clip-rule="evenodd" d="M158.063 32.678h-6.658l-5.57-9.65h-5.231v9.65h-5.718l-.003-25.356h13.286c4.177 0 7.564 3.516 7.564 7.853a7.86 7.86 0 01-3.88 6.819l6.21 10.684zm-10.708-20.454h-6.75v5.902h6.75c1.469 0 2.66-1.426 2.66-2.95 0-1.525-1.191-2.952-2.66-2.952z" fill="#8BB539"/></svg>