<svg width="160" height="40" fill="none" xmlns="http://www.w3.org/2000/svg"><path d="M1.936 12.902v14.194h1.021V14.768l9.555 12.328h.841V12.902h-1.021V25.23L2.797 12.902h-.861zm20.988 0v.933h9.074v-.933h-9.074zm16.235 0l5.008 6.874-5.389 7.32h1.202l4.807-6.57 4.828 6.57h1.202l-5.388-7.34 5.007-6.854h-1.142l-4.466 6.104-4.467-6.104h-1.202zm16.257 0v.933h5.048v13.26h1.022v-13.26h5.048v-.933H55.416zm16.137 0v.933h5.048v13.26h1.022v-13.26h5.048v-.933H71.553zm18.305 0v.933h5.028c1.482 0 2.624.345 3.425 1.014.782.669 1.182 1.622 1.182 2.838 0 1.237-.4 2.19-1.181 2.86-.802.668-1.944.993-3.426.993h-5.028v5.556h1.022v-4.643h4.006c.4 0 .861-.02 1.362-.102l3.345 4.745h1.162l-3.505-4.968c1.041-.304 1.862-.831 2.423-1.602.561-.77.862-1.703.862-2.839 0-1.48-.501-2.656-1.503-3.508-1.001-.851-2.383-1.277-4.146-1.277h-5.028zm23.217 0l-6.45 14.194h1.102l5.849-13.058 5.869 13.058h1.102l-6.45-14.194h-1.022zm14.691 0v.933h5.469c1.282 0 2.423.263 3.425.79a5.78 5.78 0 012.283 2.17c.521.933.802 2.008.802 3.204 0 1.217-.281 2.271-.802 3.204a5.69 5.69 0 01-2.283 2.19c-1.002.527-2.143.77-3.425.77h-4.447v-6.164h-1.022v7.097h5.549c1.442 0 2.744-.304 3.866-.913 1.121-.608 2.003-1.44 2.644-2.514.621-1.074.941-2.291.941-3.67 0-1.358-.32-2.575-.941-3.65-.641-1.074-1.523-1.906-2.644-2.534-1.122-.609-2.424-.913-3.866-.913h-5.549zm21.223 0v.933h9.074v-.933h-9.074zm-126.065 6.53v.912h9.074v-.913h-9.074zm126.065 0v.912h9.074v-.913h-9.074zm-126.065 6.73v.933h9.074v-.933h-9.074zm126.065 0v.933h9.074v-.933h-9.074z" fill="#8BB539"/></svg>