<svg width="160" height="40" fill="none" xmlns="http://www.w3.org/2000/svg"><path fill-rule="evenodd" clip-rule="evenodd" d="M1.944 17.918V6.865h22.713v22.712H13.605v-2.349c0-6.177-3.133-9.31-9.313-9.31H1.944zm18.018 6.964V11.56H6.639v1.813c6.59.782 10.73 4.92 11.511 11.509h1.812z" fill="#8BB539"/><path d="M27.683 29.538h3.849V18.576h6.158v10.962h3.847V15.932H27.683v13.606z" fill="#8BB539"/><path fill-rule="evenodd" clip-rule="evenodd" d="M43.403 33.135v-13.47h3.336l-.023 1.187h.07c1.352-1.42 2.985-1.556 3.825-1.556 3.335 0 5.388 2.06 5.388 5.326 0 3.129-2.076 5.287-5.458 5.287-.467 0-2.403-.097-3.591-1.38v4.606h-3.547zm6.159-11.856c-1.073 0-2.777.544-2.777 3.303 0 1.712.7 3.345 2.777 3.345 2.029 0 2.752-1.633 2.752-3.345 0-2.759-1.703-3.303-2.752-3.303z" fill="#8BB539"/><path d="M64.791 28.354c-1.305 1.224-2.563 1.555-3.964 1.555-3.825 0-3.965-2.877-3.965-4.063v-6.182h3.545v5.715c0 1.964.678 2.547 1.983 2.547 2.238 0 2.401-2.002 2.401-2.721v-5.54h3.547v9.874h-3.547v-1.185z" fill="#8BB539"/><path fill-rule="evenodd" clip-rule="evenodd" d="M69.877 29.539v-9.875h7.067c1.096 0 3.895 0 3.895 2.392 0 1.34-1.12 2.138-2.403 2.313v.058c1.958.35 2.822 1.03 2.822 2.585 0 2.022-1.772 2.527-4.337 2.527h-7.044zm5.715-4.16h-2.17v2.178h2.213c1.75 0 1.985-.584 1.985-1.01 0-.662-.35-1.168-2.029-1.168zm-.259-3.73h-1.91v1.884h1.84c.583 0 1.936-.019 1.936-.914 0-.816-.862-.97-1.866-.97zm10.404 1.204c0-1.458 1.54-1.574 2.17-1.574.396 0 1.865.02 1.912 1.302v.272c-.054.752-.624.806-2.088.945-.43.04-.935.088-1.526.163-2.147.291-4.41.835-4.41 3.09 0 .817.35 2.858 4.13 2.858 1.446 0 3.032-.37 3.964-1.341h.072l.302.971h3.731v-.174c-.676-.137-.723-.797-.7-1.866l.07-4.51c.024-1.146-.093-3.693-5.434-3.693-1.283 0-5.411.116-5.575 3.557h3.382zm4.105 2.605c0 1.982-1.726 2.469-2.588 2.469-.654 0-1.82-.215-1.82-1.147 0-1.109 1.329-1.322 2.076-1.42l.526-.072c.842-.115.894-.122 1.806-.453v.623z" fill="#8BB539"/><path d="M93.758 19.664v1.984h3.919v7.89h3.545v-7.89h3.918v-1.984H93.758z" fill="#8BB539"/><path fill-rule="evenodd" clip-rule="evenodd" d="M109.668 18.576h8.839v-2.644h-12.689v13.606h7.791c3.779 0 6.203-1.32 6.203-4.101 0-4.353-4.85-4.451-6.203-4.451h-3.941v-2.41zm0 5.053h3.194c.936 0 2.8.098 2.8 1.73 0 1.283-1.354 1.536-2.869 1.536h-3.125V23.63zm16.931-2.35c-.628 0-2.168.116-2.168 1.574h-3.383c.163-3.44 4.293-3.557 5.574-3.557 5.342 0 5.459 2.547 5.435 3.692l-.069 4.51c-.024 1.07.025 1.73.699 1.867v.174h-3.732l-.304-.971h-.069c-.933.971-2.519 1.341-3.965 1.341-3.779 0-4.128-2.04-4.128-2.857 0-2.256 2.262-2.8 4.407-3.091a44.597 44.597 0 011.526-.163c1.466-.14 2.036-.193 2.091-.945v-.272c-.047-1.282-1.517-1.302-1.914-1.302zm-.652 6.648c.862 0 2.588-.487 2.588-2.47v-.622c-.913.331-.964.338-1.807.453l-.526.072c-.746.098-2.074.311-2.074 1.42 0 .932 1.166 1.147 1.819 1.147z" fill="#8BB539"/><path d="M137.119 29.539h-3.546v-9.875h3.546v3.713h4.269v-3.713h3.545v9.875h-3.545V25.36h-4.269v4.179zm20.71-9.875h-3.941l-3.802 3.966h-.069v-3.966h-3.545v9.875h3.545v-4.315h.069l3.824 4.315h4.153l-5.108-5.249 4.874-4.626zM1.936 29.575h8.88v-8.88h-8.88v8.88z" fill="#8BB539"/></svg>