<svg width="160" height="40" fill="none" xmlns="http://www.w3.org/2000/svg"><path d="M19.966 22.34c1.98-2.125 3.093-5.005 3.093-8.008 0-3.003-1.113-5.883-3.093-8.006S15.299 3.01 12.498 3.01H1.936v11.322c1.387 0 2.76.292 4.042.861a10.542 10.542 0 013.427 2.455 11.41 11.41 0 012.29 3.675c.53 1.374.804 2.847.803 4.334H7.217c-1.4 0-2.743.596-3.734 1.658-.99 1.061-1.547 2.5-1.547 4.002a6.02 6.02 0 00.399 2.17 5.707 5.707 0 001.144 1.841c.49.527 1.073.945 1.714 1.23a4.968 4.968 0 004.048 0 5.276 5.276 0 001.714-1.23c.49-.527.88-1.153 1.144-1.84a6.02 6.02 0 00.4-2.171v-5.66c2.8 0 5.486-1.194 7.467-3.318z" fill="#8BB539"/><path fill-rule="evenodd" clip-rule="evenodd" d="M48.944 13.19c-1.069-1.077-2.61-1.617-4.61-1.617h-5.31a1.29 1.29 0 00-.49.085 1.25 1.25 0 00-.417.264 1.19 1.19 0 00-.274.4 1.15 1.15 0 00-.09.47v16.525h2.977v-6.304h3.365c2.095 0 3.68-.474 4.785-1.495 1.106-.992 1.658-2.409 1.658-4.248a5.474 5.474 0 00-.373-2.193 5.65 5.65 0 00-1.221-1.887zm-1.452 4.05c0 2.203-1.14 3.304-3.418 3.304H40.73v-6.508h3.318c.462-.03.925.03 1.364.175.438.144.842.37 1.187.667.309.314.547.686.7 1.092.154.406.22.838.193 1.27zm14.45 8.65a6.42 6.42 0 01-3.987 1.443c-2.155 0-3.406-1.037-3.754-3.111h5.508a3.94 3.94 0 001.499-.188 3.83 3.83 0 001.303-.735c.321-.318.572-.695.737-1.11.164-.413.24-.855.22-1.298a3.624 3.624 0 00-.37-1.771 3.789 3.789 0 00-1.188-1.401 6.139 6.139 0 00-3.721-1.128c-2.088-.003-3.725.643-4.913 1.939a6.807 6.807 0 00-1.77 4.769c0 1.928.581 3.458 1.744 4.59a6.137 6.137 0 002.09 1.307 6.34 6.34 0 002.46.396 8.311 8.311 0 005.439-1.887l-1.297-1.815zm-6.492-6.26a3.812 3.812 0 012.658-.969l-.022-.005a3.045 3.045 0 011.978.612c.23.178.416.404.544.66.128.255.195.536.195.82.015.209-.017.42-.093.616a1.476 1.476 0 01-.348.526 1.73 1.73 0 01-1.218.398h-5.002a4.264 4.264 0 011.308-2.658z" fill="#8BB539"/><path d="M74.711 16.948a4.284 4.284 0 00-1.786-.372l-.021-.005a5.41 5.41 0 00-2.22.486 5.2 5.2 0 00-1.794 1.345v-1.53h-2.75v12.445h2.84v-8.742a5.162 5.162 0 011.684-1.187 5.35 5.35 0 012.037-.45c.501.019.998.101 1.477.245l.532-2.235zm5.625-2.698a2.766 2.766 0 011.876-.632l-.021-.005a4.17 4.17 0 012.243.719l1.064-1.862a5.95 5.95 0 00-3.722-1.193 6.52 6.52 0 00-1.116.097c-.447.09-.881.232-1.292.423a4.655 4.655 0 00-1.27.821c-.408.4-.721.878-.92 1.403a5.48 5.48 0 00-.378 2.101v13.195h2.775V18.861h4.684v-1.989h-4.662v-.622a2.454 2.454 0 01.142-1.077c.128-.345.331-.66.597-.923z" fill="#8BB539"/><path fill-rule="evenodd" clip-rule="evenodd" d="M95.577 25.895a6.42 6.42 0 01-3.987 1.443l-.021-.005c-2.141 0-3.385-1.035-3.732-3.106h5.507a3.912 3.912 0 001.497-.187 3.84 3.84 0 001.3-.736c.323-.317.575-.694.741-1.108.166-.414.24-.857.22-1.3a3.624 3.624 0 00-.368-1.771 3.79 3.79 0 00-1.189-1.401 6.139 6.139 0 00-3.721-1.127c-2.091-.004-3.729.642-4.912 1.938a6.808 6.808 0 00-1.776 4.769c.004 1.928.587 3.458 1.75 4.59a6.132 6.132 0 002.087 1.307 6.334 6.334 0 002.457.397 8.317 8.317 0 005.444-1.888l-1.297-1.815zm-6.491-6.258a3.812 3.812 0 012.658-.97l-.021-.01a3.045 3.045 0 011.977.617c.23.178.417.404.544.66.128.255.195.536.195.82.015.209-.016.42-.092.616a1.476 1.476 0 01-.349.526 1.73 1.73 0 01-1.217.398h-5.003a4.264 4.264 0 011.308-2.657z" fill="#8BB539"/><path d="M102.673 29.21a6.234 6.234 0 002.468.413 6.639 6.639 0 003.508-.898 5.806 5.806 0 002.191-2.26l-2.1-1.244c-.915 1.395-2.081 2.092-3.498 2.092a3.438 3.438 0 01-1.407-.25 3.305 3.305 0 01-1.166-.796c-.667-.68-1-1.724-1-3.132 0-1.407.355-2.472 1.064-3.193.328-.35.732-.628 1.184-.815.451-.186.94-.277 1.431-.266a3.467 3.467 0 011.865.454 3.272 3.272 0 011.298 1.362l2.228-1.22c-1.053-1.92-2.859-2.88-5.418-2.88a6.412 6.412 0 00-2.557.41 6.204 6.204 0 00-2.158 1.38c-1.177 1.193-1.763 2.783-1.76 4.768.004 1.986.587 3.564 1.749 4.733a6.033 6.033 0 002.078 1.343zm18.166-.755l-.983-2.04v-.005a4.064 4.064 0 01-2.233.704 2.065 2.065 0 01-1.356-.51c-.206-.2-.364-.44-.465-.704a1.88 1.88 0 01-.119-.826V18.86h4.401v-1.989h-4.401v-3.83h-2.797V25.2a4.666 4.666 0 001.064 3.244c.393.406.876.722 1.413.926a4.03 4.03 0 001.691.252 6.477 6.477 0 003.785-1.168zm13.365-11.583h-2.796v8.558c-1.521 1.211-2.876 1.816-4.067 1.816-1.297 0-1.946-.738-1.946-2.213v-8.161h-2.823v8.798c-.063.532 0 1.07.183 1.575.183.506.482.965.875 1.344.393.38.87.67 1.395.849a3.871 3.871 0 001.641.185c1.637-.02 3.252-.7 4.843-2.04v1.74h2.695V16.871zm21.367-.144a3.867 3.867 0 00-1.655-.177v.02a7.605 7.605 0 00-4.97 1.99c-.606-1.34-1.824-2.01-3.652-2.01-1.611 0-3.222.704-4.849 2.111v-1.79h-2.716v12.43h2.876v-8.62c1.414-1.194 2.725-1.79 3.934-1.79.269-.03.541 0 .796.088.255.09.485.233.671.422a2.77 2.77 0 01.425 1.724v8.16h2.876v-8.721c1.297-1.126 2.618-1.689 3.961-1.689.269-.024.541.012.794.107.252.095.477.245.657.44.337.51.492 1.11.441 1.713v8.16h2.876v-8.772a3.422 3.422 0 00-.176-1.589 3.556 3.556 0 00-.88-1.355 3.749 3.749 0 00-1.409-.852z" fill="#8BB539"/></svg>