<svg width="160" height="40" fill="none" xmlns="http://www.w3.org/2000/svg"><path fill-rule="evenodd" clip-rule="evenodd" d="M40.436 20c0 10.632-8.616 19.252-19.248 19.252-10.633 0-19.252-8.62-19.252-19.252S10.556.748 21.188.748 40.436 9.368 40.436 20zM21.339 30.735c-5.287.018-10.791-4.496-10.816-11.747-.017-4.792 2.572-9.408 5.875-12.146 3.226-2.667 7.644-4.382 11.648-4.396.516 0 1.057.042 1.386.155-3.502.725-6.289 3.987-6.278 7.683 0 .123.01.254.025.314 5.86 1.43 8.52 4.966 8.538 9.858.014 4.895-3.848 10.258-10.378 10.279z" fill="#8BB539"/><path d="M114.233 11.493c.339.107.566.192.682.248l.407-3c-.095-.06-.431-.169-1.004-.335s-1.295-.248-2.169-.248a5.91 5.91 0 00-1.839.276 3.815 3.815 0 00-1.471.877c-.418.396-.743.913-.976 1.542-.234.633-.351 1.405-.351 2.317v.757h-1.864v2.915h1.864v11.13h3.615v-11.13h3.003v-2.915h-3.031v-.668c0-.68.17-1.171.509-1.472.34-.3.764-.453 1.266-.453.566 0 1.016.053 1.359.16z" fill="#8BB539"/><path fill-rule="evenodd" clip-rule="evenodd" d="M86.527 26.897l.145 1.075h3.322V8.537h-3.612v5.446c-.852-.268-1.648-.406-2.384-.406-1.12 0-2.1.212-2.932.63a6.164 6.164 0 00-2.08 1.658 7.092 7.092 0 00-1.234 2.345 9.073 9.073 0 00-.403 2.681c0 .973.13 1.907.389 2.798a7.462 7.462 0 001.15 2.363 5.719 5.719 0 001.86 1.63c.732.407 1.588.612 2.553.612.736 0 1.376-.141 1.918-.424.544-.28.98-.605 1.308-.973zm-2.09-10.289c.601 0 1.249.138 1.945.41v6.961c-.194.329-.523.619-.987.863-.463.24-.916.364-1.361.364-.541 0-1.012-.123-1.408-.364a3.086 3.086 0 01-.983-.965 4.33 4.33 0 01-.58-1.405 7.255 7.255 0 01-.191-1.68c0-.527.074-1.04.219-1.535.145-.498.36-.948.65-1.347.29-.4.659-.715 1.104-.948.442-.234.977-.354 1.592-.354zm-9.331 6.983c.28-.884.42-1.782.42-2.698 0-.913-.14-1.804-.42-2.681a7.106 7.106 0 00-1.27-2.345 6.303 6.303 0 00-2.097-1.66c-.835-.417-1.818-.629-2.943-.629-1.128 0-2.115.212-2.957.63a6.143 6.143 0 00-2.1 1.659 7.333 7.333 0 00-1.253 2.345 8.771 8.771 0 00-.42 2.68 8.9 8.9 0 00.42 2.7c.283.884.7 1.673 1.252 2.373a6.224 6.224 0 002.101 1.69c.842.428 1.829.64 2.957.64 1.125 0 2.112-.212 2.957-.64a6.178 6.178 0 002.097-1.69c.556-.7.973-1.49 1.256-2.373zm-3.339-4.38c.138.527.205 1.083.205 1.666 0 .605-.067 1.168-.205 1.684-.134.516-.34.97-.612 1.358-.272.39-.601.697-.99.923-.39.223-.846.336-1.369.336-.524 0-.987-.113-1.383-.336a2.918 2.918 0 01-.994-.923 4.396 4.396 0 01-.594-1.358 6.513 6.513 0 01-.205-1.684c0-.583.067-1.139.205-1.666.134-.527.34-.98.612-1.358a3.05 3.05 0 01.99-.905c.386-.227.845-.34 1.369-.34.523 0 .98.113 1.369.34.389.223.718.523.99.905.272.379.478.831.612 1.358z" fill="#8BB539"/><path d="M52.869 27.973l-5.886-14.046h3.845l3.671 9.327 3.559-9.327h3.671l-5.712 14.046h-3.148z" fill="#8BB539"/><path fill-rule="evenodd" clip-rule="evenodd" d="M100.314 26.912l.142 1.05h3.296v-9.026c0-.952-.131-1.762-.392-2.43-.266-.672-.63-1.224-1.093-1.66a4.315 4.315 0 00-1.663-.961 6.96 6.96 0 00-2.13-.308c-.657 0-1.276.064-1.849.19a9.833 9.833 0 00-1.542.468c-.46.184-.845.375-1.167.57a5.147 5.147 0 00-.715.495l1.196 2.532c.138-.117.318-.248.54-.393.227-.145.486-.29.779-.438.294-.145.623-.266.994-.361.371-.1.764-.149 1.174-.149.7 0 1.252.167 1.652.496.403.332.601.884.601 1.662v.205c-.371.04-.834.081-1.39.131-.555.05-1.068.12-1.535.216-.661.116-1.298.294-1.9.527a6.172 6.172 0 00-1.608.902c-.47.371-.839.82-1.111 1.355-.276.534-.41 1.153-.41 1.85 0 .7.13 1.326.396 1.881a4.266 4.266 0 001.036 1.397c.428.379.92.672 1.479.874a4.97 4.97 0 001.74.308c.721 0 1.383-.124 1.987-.368a4.006 4.006 0 001.493-1.015zm-1.351-5.423c.41-.046.814-.082 1.203-.102v2.858c-.312.29-.69.534-1.129.728-.438.195-.895.29-1.365.29-.626 0-1.107-.141-1.45-.42-.343-.284-.513-.659-.513-1.122 0-.449.152-.86.453-1.241.304-.379.845-.644 1.63-.8.372-.078.76-.141 1.171-.19zm29.357-.596c0 .916-.141 1.814-.424 2.698a7.355 7.355 0 01-1.252 2.374 6.176 6.176 0 01-2.098 1.69c-.845.428-1.832.64-2.957.64-1.128 0-2.115-.212-2.957-.64a6.235 6.235 0 01-2.101-1.69 7.494 7.494 0 01-1.252-2.373 8.793 8.793 0 010-5.38 7.35 7.35 0 011.252-2.345 6.153 6.153 0 012.101-1.66c.842-.417 1.829-.629 2.957-.629 1.125 0 2.108.213 2.943.63a6.3 6.3 0 012.098 1.659c.566.69.986 1.471 1.266 2.345a8.67 8.67 0 01.424 2.68zm-3.554-.016a6.69 6.69 0 00-.206-1.666 3.987 3.987 0 00-.611-1.358 3.106 3.106 0 00-.991-.905c-.389-.227-.845-.34-1.369-.34-.523 0-.983.113-1.368.34-.39.223-.722.523-.994.905a4.127 4.127 0 00-.612 1.358 6.69 6.69 0 00-.202 1.666c0 .605.067 1.168.202 1.684.138.516.336.97.597 1.358.262.39.595.697.991.923.4.223.863.336 1.386.336.524 0 .98-.113 1.369-.336.389-.226.718-.534.991-.923.272-.389.477-.842.611-1.358a6.645 6.645 0 00.206-1.684z" fill="#8BB539"/><path d="M139.536 27.973V19.96c0-1.068-.223-1.896-.669-2.48-.449-.58-1.068-.873-1.867-.873a2.9 2.9 0 00-1.556.439c-.478.29-.892.612-1.242.962v9.964h-3.611V13.927h3.293l.173 1.107a6.302 6.302 0 011.91-1.075 6.28 6.28 0 012.14-.378c.739 0 1.418.11 2.041.332.622.226 1.156.58 1.602 1.065.449.484.792 1.117 1.036 1.892.241.778.365 1.712.365 2.798v8.305h-3.615z" fill="#8BB539"/><path fill-rule="evenodd" clip-rule="evenodd" d="M148.945 21.853c.077 1.185.445 2.041 1.11 2.565.662.523 1.521.788 2.572.788.488 0 .948-.046 1.376-.13.428-.089.81-.199 1.142-.336.333-.135.615-.273.849-.407.233-.138.407-.265.527-.382l.962 2.946a6.773 6.773 0 01-1.779.86 12.34 12.34 0 01-1.574.378c-.601.106-1.263.16-1.981.16a7.821 7.821 0 01-2.61-.436 5.834 5.834 0 01-2.168-1.358c-.623-.612-1.118-1.372-1.486-2.285-.371-.913-.555-2.002-.555-3.265 0-1.184.17-2.235.509-3.148.34-.912.807-1.68 1.397-2.302a6.196 6.196 0 012.069-1.43 6.48 6.48 0 012.522-.494c.895 0 1.719.148 2.48.438.757.29 1.411.743 1.966 1.355.552.612.991 1.404 1.309 2.377.322.969.481 2.126.481 3.466v.64h-9.118zm5.447-2.592a3.706 3.706 0 00-.308-1.267 2.665 2.665 0 00-.616-.873 2.448 2.448 0 00-.788-.499 2.474 2.474 0 00-.867-.159c-.626 0-1.22.233-1.786.7-.566.467-.898 1.164-.997 2.098h5.362z" fill="#8BB539"/></svg>