<svg width="160" height="40" fill="none" xmlns="http://www.w3.org/2000/svg"><path d="M157.694 2.8c-.553-.74-1.106-1.295-3.871-1.48-.738 0-2.95-.185-6.822-.185-10.14 0-17.147 3.144-20.65 9.248.922-6.104-4.978-9.248-17.883-9.248-15.119 0-24.706 6.103-28.578 18.495-1.475 4.624-1.475 8.323-.368 11.283h-3.688c-2.766.184-6.453.37-8.85.37-5.53 0-9.034-.925-10.324-2.775-1.107-1.665-1.107-4.809.368-9.433 2.397-7.583 8.113-10.912 17.331-10.912 4.794 0 9.403.555 9.403.555.553 0 .922-.74.922-1.295l-.184-.555-.37-2.589c-.184-1.665-1.474-2.59-3.687-2.96-2.028-.184-3.687-.184-5.9-.184h-.184c-11.984 0-20.465 4.069-25.074 11.837 1.66-7.953-3.872-11.837-16.593-11.837-7.19 0-12.353.185-15.303.555-2.397.37-3.872 1.294-4.425 2.959l-1.106 3.33c-.185.554.184.924.922.924.553 0 2.765-.37 6.453-.555 4.977-.37 8.48-.555 10.877-.555 7.006 0 10.14 1.85 9.035 5.364-.185.74-.738 1.294-1.66 1.48-6.637 1.11-11.984 1.849-15.856 2.404C10.567 18.52 4.114 21.85 2.455 27.398c-2.397 7.583 3.503 11.283 17.7 11.283 7.005 0 13.09-.37 17.883-1.295 2.766-.555 4.24-1.11 4.794-2.96l2.581-8.507c-.184 8.508 5.531 12.762 17.7 12.762 5.162 0 10.14-.185 12.537-.555 2.396-.37 3.687-.925 4.24-2.775l.553-2.589c2.582 4.07 8.297 6.104 16.962 6.104 9.219 0 14.566-.185 16.041-.74 1.29-.37 2.028-1.11 2.396-2.035 0-.185 0-.37.185-.555l1.106-3.514c.184-.555-.184-.924-.922-.924l-5.9.37c-3.872.184-7.006.37-9.218.37-4.24 0-7.006-.37-8.666-.925-2.396-.925-3.503-2.59-3.318-5.364l18.621-2.405c8.297-1.11 14.012-3.699 16.778-7.768l-6.453 21.64c-.185.37 0 .74.184.925.185.185.553.37 1.291.37h7.743c1.291 0 1.844-.74 2.028-1.295l6.822-23.86c.922-3.143 3.687-4.623 8.85-4.623 4.609 0 7.928 0 10.14.185h.185c.368 0 1.106-.185 1.659-1.11l1.106-3.329c0-.555 0-1.11-.369-1.48zM33.429 31.281c-2.397.37-5.9.555-10.325.555-7.928 0-11.246-1.664-10.324-4.808.737-2.22 2.765-3.7 6.084-4.07l17.884-2.404-3.319 10.727zm82.413-19.235c-.737 2.404-4.24 4.07-10.509 4.994l-14.934 2.034.369-1.294c1.29-4.07 2.95-6.659 5.162-8.138 2.213-1.48 5.9-2.22 11.063-2.22 6.821.185 9.771 1.665 8.849 4.624z" fill="#8BB539"/></svg>