<svg width="160" height="42" fill="none" xmlns="http://www.w3.org/2000/svg"><path fill-rule="evenodd" clip-rule="evenodd" d="M23.679 4.343c2.388 2.588 3.732 6.096 3.736 9.756 3.379 0 6.619 1.454 9.008 4.043 2.39 2.589 3.731 6.1 3.731 9.76 0 3.662-1.342 7.173-3.73 9.762-2.39 2.588-5.63 4.043-9.01 4.043H1.937V.295h12.74c3.377.005 6.614 1.46 9.003 4.048zM5.117 38.26h22.298c2.486-.054 4.855-1.155 6.604-3.07 1.75-1.915 2.742-4.493 2.766-7.187.024-2.694-.922-5.293-2.637-7.244-1.715-1.951-4.064-3.102-6.549-3.207h-.594a14.437 14.437 0 01-1.187 3.229c-1.102 2.157-2.716 3.955-4.675 5.207a12 12 0 01-6.468 1.915H5.117V38.26zm15.075-15.703c1.614-1.237 2.835-2.984 3.495-5.003h-9.012c-1.976.003-3.904.668-5.517 1.905-1.614 1.236-2.834 2.984-3.495 5.003h9.012c1.977-.003 3.904-.668 5.517-1.905zM14.675 3.75h-9.55v15.038c.2-.248.416-.496.64-.73a11.84 11.84 0 011.198-1.132c2.213-1.837 4.924-2.831 7.712-2.827h9.551l-.02-.62c-.149-2.631-1.218-5.102-2.988-6.91-1.77-1.806-4.11-2.815-6.543-2.82zm42.03 3.84c-1.782 0-3.408 1.023-4.653 2.2V3.696h-1.189V18.98h.883l.234-2.024c1.258 1.2 2.908 2.2 4.729 2.2 2.315 0 4.298-1.922 4.298-5.801 0-3.88-1.992-5.766-4.302-5.766zm0 10.372c-1.745 0-3.29-1.138-4.653-2.509v-4.257c1.363-1.308 2.908-2.4 4.653-2.4 1.65 0 3.087 1.506 3.087 4.585 0 3.079-1.436 4.581-3.087 4.581z" fill="#8BB539"/><path d="M64.013 3.696h1.189v2.177h-1.19V3.696zm0 4.074h1.189v11.21h-1.19V7.77z" fill="#8BB539"/><path fill-rule="evenodd" clip-rule="evenodd" d="M68.215 13.38c0-3.87 2.688-5.791 5.31-5.791 2.633 0 5.312 1.93 5.312 5.801 0 3.872-2.69 5.792-5.312 5.792-2.622 0-5.31-1.93-5.31-5.801zm1.23-.004c0 3.055 2.077 4.586 4.08 4.586 2.005 0 4.08-1.53 4.08-4.586 0-3.054-2.071-4.585-4.08-4.585s-4.08 1.53-4.08 4.585zm13.561-3.521C84.258 8.65 85.91 7.59 87.725 7.59c2.315 0 4.296 1.918 4.296 5.787 0 3.87-1.983 5.792-4.298 5.792-1.781 0-3.408-.98-4.653-2.14v6.033h-1.189V7.775h.885l.24 2.08zm.066 5.598c1.363 1.37 2.908 2.509 4.653 2.509 1.65 0 3.089-1.503 3.089-4.582 0-3.079-1.438-4.585-3.09-4.585-1.744 0-3.29 1.092-4.652 2.4v4.258z" fill="#8BB539"/><path d="M96.42 9.774c1.307-1.2 2.841-2.185 4.65-2.185 2.275 0 3.817 1.388 3.813 4.187v7.202h-1.189v-7.202c0-1.986-1.06-2.987-2.624-2.987-1.726 0-3.214 1-4.65 2.401v7.79h-1.19V3.696h1.19v6.078zm25.309-2.003l.243 2.09c1.119-1.276 2.375-2.25 4.003-2.244a4.581 4.581 0 011.52.276l-.462 1.18a2.869 2.869 0 00-1.278-.278c-1.478 0-2.647 1.12-3.727 2.413v7.766h-1.189V7.771h.89zm16.229 2.14c1.113-1.262 2.589-2.322 4.212-2.322 2.117 0 3.659 1.388 3.659 4.217v7.202h-1.189v-7.002c0-2.323-1.038-3.2-2.47-3.2-1.468 0-2.935 1.165-3.949 2.454.024.172.024.35.024.532v7.202h-1.19v-7.002c0-2.323-1.015-3.2-2.472-3.2s-2.912 1.151-3.924 2.43v7.77h-1.188V7.789h.881l.231 2c1.084-1.2 2.481-2.2 4-2.2 1.577 0 2.838.77 3.375 2.322z" fill="#8BB539"/><path fill-rule="evenodd" clip-rule="evenodd" d="M108.348 9.277c1.413-.946 2.759-1.688 4.83-1.688 2.27 0 3.946 1.388 3.946 4.195v7.202h-.883l-.247-2.13c-1.212 1.266-2.723 2.318-4.581 2.318-2.051 0-3.661-1.252-3.661-3.475 0-2.29 1.953-3.589 4.169-3.589 1.496 0 2.895.612 4.014 1.4v-1.43c0-2.455-1.235-3.333-2.799-3.333-1.699 0-2.602.464-4.189 1.53l-.599-1zm.619 6.416c0 1.553 1.213 2.319 2.69 2.319 1.578 0 2.984-1.085 4.278-2.409v-.842c-1.161-.842-2.43-1.499-4.014-1.499-1.808 0-2.954.925-2.954 2.431zm40.32-6.416c1.413-.946 2.757-1.688 4.83-1.688h.004c2.27 0 3.945 1.388 3.942 4.195v7.202h-.883l-.248-2.13c-1.21 1.266-2.723 2.318-4.58 2.318-2.051 0-3.661-1.252-3.661-3.475 0-2.29 1.954-3.589 4.169-3.589 1.496 0 2.895.612 4.015 1.4v-1.43c0-2.455-1.233-3.333-2.8-3.333-1.698 0-2.601.464-4.189 1.53l-.599-1zm.619 6.416c0 1.553 1.213 2.319 2.69 2.319 1.583 0 2.991-1.085 4.279-2.409v-.842c-1.163-.842-2.43-1.499-4.015-1.499-1.807 0-2.954.925-2.954 2.431zM51.871 41.577v-5.34c.637.788 1.662 1.518 2.906 1.518 2.305 0 4.236-1.844 4.236-4.647s-1.861-4.667-4.088-4.667c-1.33 0-2.481.8-3.139 1.612a6.068 6.068 0 00-.196-1.362h-1.028c.156.71.227 1.439.213 2.169v10.717h1.096zm0-10.621c.62-.673 1.684-1.479 2.954-1.479 1.63 0 2.978 1.44 2.978 3.631 0 2.19-1.417 3.601-3.138 3.601-1.241 0-2.251-.844-2.8-1.478l.006-4.276z" fill="#8BB539"/><path d="M63.09 24.062h-1.1v13.443h1.1V24.063z" fill="#8BB539"/><path fill-rule="evenodd" clip-rule="evenodd" d="M67.031 30.54a5.687 5.687 0 013.219-1.1c1.292 0 2.551.537 2.551 1.92v1.498c-.69-.826-2.03-1.114-3.139-1.114-2.4 0-3.722 1.306-3.722 2.939 0 1.728 1.206 3.014 3.244 3.014 1.343-.006 2.634-.562 3.615-1.556.019.442.072 1.018.266 1.364h1.117a3.94 3.94 0 01-.282-1.6v-4.853c0-1.959-1.861-2.611-3.617-2.611a6.593 6.593 0 00-3.65 1.132l.398.966zm2.358 6.165c-1.523 0-2.358-.902-2.358-2.016 0-1.115.852-2 2.785-2 1.203 0 2.428.383 2.976 1.171v1.269c-.142.244-1.558 1.576-3.403 1.576z" fill="#8BB539"/><path d="M83.652 29.535a6.3 6.3 0 00-3.545-1.132c-1.488 0-3.279.632-3.279 2.649 0 2.093 1.932 2.226 3.606 2.341l.046.003c1.063.056 2.694.172 2.694 1.555 0 1.23-1.241 1.844-2.748 1.844-1.613 0-2.712-.73-3.474-1.306l-.443.902a6.134 6.134 0 003.936 1.383c2.09 0 3.827-.92 3.827-2.92 0-2.366-2.372-2.512-3.767-2.599l-.033-.002c-1.081-.057-2.545-.136-2.545-1.343 0-1.095 1.17-1.517 2.198-1.517a5.605 5.605 0 013.084 1.036l.443-.894zm4.43 7.971v-6.454c.585-.728 1.477-1.575 2.64-1.575 1.117 0 1.772.769 1.933 1.615v6.414h1.099v-6.454c.585-.728 1.477-1.575 2.623-1.575.253-.011.504.033.74.13.236.098.452.247.633.437.181.191.325.42.421.672.097.253.146.524.143.798v5.992h1.108v-5.992c0-1.787-1.222-3.073-2.871-3.073-1.383 0-2.376.864-2.997 1.787a3 3 0 00-1.088-1.333 2.664 2.664 0 00-1.587-.454c-1.365 0-2.27.826-2.908 1.633a5.244 5.244 0 00-.229-1.383H86.73c.167.683.25 1.387.25 2.093v6.722h1.102z" fill="#8BB539"/><path fill-rule="evenodd" clip-rule="evenodd" d="M103.07 30.54a5.684 5.684 0 013.209-1.095c1.292 0 2.551.538 2.551 1.92v1.5c-.69-.827-2.03-1.115-3.138-1.115-2.412 0-3.723 1.306-3.723 2.939 0 1.728 1.206 3.014 3.244 3.014 1.347-.006 2.642-.564 3.625-1.562.018.442.07 1.018.266 1.364h1.117a3.946 3.946 0 01-.285-1.6v-4.853c0-1.959-1.861-2.611-3.615-2.611a6.606 6.606 0 00-3.652 1.132l.401.966zm2.358 6.165c-1.525 0-2.358-.902-2.358-2.016 0-1.115.851-2 2.782-2 1.206 0 2.428.383 2.978 1.171v1.269c-.142.244-1.56 1.576-3.402 1.576z" fill="#8BB539"/></svg>