<svg width="160" height="40" fill="none" xmlns="http://www.w3.org/2000/svg"><path fill-rule="evenodd" clip-rule="evenodd" d="M16.022.198l-.058-.055h-.051l-8.126.05 11.71 11.371-5.757 5.545-3.435 3.303-2.454 2.363v.031l2.454 2.32 3.435 3.302 11.786 11.314H33.8L16.195 22.75l7.436-7.176 3.452 3.341.02-.018.615.6 9.254 8.95 5.832 5.647.016-.015 5.86 5.669 13.9.099v-.05c2.528-.088 4.923-1.106 6.698-2.845a10.158 10.158 0 002.038-2.79 9.556 9.556 0 001.008-3.839 9.684 9.684 0 002.888 6.45c.024.025.046.051.067.076.03.036.06.07.094.103 1.771 1.743 4.168 2.764 6.697 2.852v.055h6.953l5.89-5.697H82.69a4.538 4.538 0 01-1.73-.303 4.212 4.212 0 01-1.455-.934 3.704 3.704 0 01-.93-1.367 4.006 4.006 0 01-.275-2.473 4.1 4.1 0 011.243-2.178c.406-.41.895-.735 1.436-.954a4.404 4.404 0 011.711-.32h12.234l-5.883-5.697h-6.35a10.235 10.235 0 00-3.963.722 9.945 9.945 0 00-3.337 2.185 1.254 1.254 0 01-.09.1c-1.803 1.739-2.861 4.063-2.976 6.511a9.508 9.508 0 00-.142-1.262 9.723 9.723 0 00-2.906-5.337 9.99 9.99 0 00-3.34-2.177 10.282 10.282 0 00-3.96-.724H53.18a4.391 4.391 0 01-1.743-.31 4.263 4.263 0 01-1.461-.97 4.285 4.285 0 01-.93-1.36 4.316 4.316 0 01-.313-1.67 3.98 3.98 0 01.304-1.62c.214-.515.533-.982.939-1.374a4.08 4.08 0 011.455-.94 4.63 4.63 0 011.73-.298v-.043h13.266l5.89-5.66H52.14v.087a9.862 9.862 0 00-6.24 2.858 9.64 9.64 0 00-2.245 3.204 9.356 9.356 0 00-.76 3.798 9.434 9.434 0 001.922 5.82c.326.436.684.85 1.07 1.237a10.1 10.1 0 003.576 2.24c1.19.442 2.455.666 3.73.661h8.8a4.408 4.408 0 011.71.324 4.28 4.28 0 011.436.957 4.141 4.141 0 011.236 2.183 4.055 4.055 0 01-.268 2.474c-.209.518-.53.986-.942 1.373a4.208 4.208 0 01-1.455.891 4.564 4.564 0 01-1.73.303v.044l-19.111-.087V.143h-5.954V20.25l-1.032-.896-3.512-3.384-1.096-1.045.02-.025-2.461-2.375-.737-.705-.29-.278L33.8 5.759h-8.274l-1.864 1.795-1.744-1.678L16.022.198zm26.8 33.878zM138.909 5.71h19.136l-5.883 5.647h-13.266v.037a4.536 4.536 0 00-1.73.303 4.076 4.076 0 00-1.461.94 4.088 4.088 0 00-.934 1.372 3.97 3.97 0 00-.303 1.616 4.294 4.294 0 00.314 1.67c.213.507.526.97.923 1.36.412.418.91.747 1.462.968.551.22 1.145.327 1.742.313h8.799c1.359-.02 2.708.23 3.964.733a9.976 9.976 0 013.336 2.193 9.715 9.715 0 012.905 5.333 9.52 9.52 0 01-.867 5.968 10.1 10.1 0 01-2.038 2.721c-1.772 1.743-4.169 2.764-6.697 2.852v.043h-13.042l-2.91-2.808-2.948-2.846h18.297a4.568 4.568 0 001.731-.303 4.34 4.34 0 001.454-.897 3.83 3.83 0 00.936-1.354 4.029 4.029 0 00.267-2.473 4.124 4.124 0 00-1.241-2.179 4.257 4.257 0 00-1.431-.96 4.384 4.384 0 00-1.709-.326h-8.8a10.731 10.731 0 01-3.729-.656 10.11 10.11 0 01-3.576-2.245 11.594 11.594 0 01-1.083-1.268 9.497 9.497 0 01-1.51-2.943c.126.446.22.902.279 1.365h.115v19.887h-5.902l.032-18.656a3.95 3.95 0 00-.316-1.563 4.058 4.058 0 00-.914-1.325 4.078 4.078 0 00-1.462-.94 4.502 4.502 0 00-1.724-.304v-.043h-14.957v-5.666h16.015v.093a9.87 9.87 0 016.242 2.852 9.616 9.616 0 012.532 4.097 9.327 9.327 0 01-.353-2.675 9.343 9.343 0 01.761-3.797 9.627 9.627 0 012.245-3.205 9.867 9.867 0 016.235-2.845V5.71h1.064zm-38.061 15.253v-1.077h-.109a9.509 9.509 0 00-2.871-5.665 9.87 9.87 0 00-6.242-2.852v-.093H75.629v5.666h14.964v.043c.59-.012 1.177.09 1.724.304.56.206 1.065.529 1.48.946.393.38.704.83.915 1.326a3.94 3.94 0 01.316 1.563l-.032 18.655h5.851V21.123c.021-.036.014-.07.007-.106-.003-.017-.007-.035-.007-.054zm10.388 4.67h12.235l-5.884-5.697h-6.351a10.243 10.243 0 00-3.961.723 9.954 9.954 0 00-3.338 2.184 1.184 1.184 0 01-.09.099c-1.889 1.832-2.955 4.308-2.967 6.893-.012 2.585 1.031 5.07 2.903 6.919.046.064.097.124.154.18 1.772 1.742 4.169 2.763 6.697 2.85v.057h6.953l5.871-5.679h-12.222a4.537 4.537 0 01-1.73-.303 4.22 4.22 0 01-1.455-.934 3.748 3.748 0 01-.929-1.367 4.02 4.02 0 01-.352-1.664 4.093 4.093 0 01.353-1.621c.228-.513.559-.977.973-1.366.404-.41.891-.735 1.432-.955a4.373 4.373 0 011.708-.32zM1.935 39.766L1.969 5.76l5.87.018v33.99H1.936z" fill="#64708B"/></svg>