<svg width="160" height="40" fill="none" xmlns="http://www.w3.org/2000/svg"><path d="M59.48 19.794h-3.184v5.648c-1.07.621-2.312.932-3.727.932-1.26 0-2.39-.276-3.391-.829a6.155 6.155 0 01-2.33-2.28c-.552-.967-.828-2.055-.828-3.264 0-1.244.276-2.35.828-3.317a5.967 5.967 0 012.33-2.254c1-.535 2.14-.803 3.416-.803 1.95 0 3.616.691 4.996 2.073l2.123-2.073a8.127 8.127 0 00-3.132-2.202c-1.243-.5-2.623-.751-4.142-.751-1.864 0-3.546.406-5.047 1.218a8.843 8.843 0 00-3.495 3.316c-.845 1.416-1.268 3.014-1.268 4.793 0 1.779.423 3.377 1.268 4.793.846 1.416 2.01 2.53 3.495 3.342 1.484.794 3.149 1.192 4.995 1.192 1.312 0 2.589-.199 3.831-.596 1.243-.397 2.33-.967 3.262-1.71v-7.228zm-40.9 9.275l-.026-12.022-5.954 9.949h-1.5l-5.954-9.793v11.866h-3.21V10.933h2.77l7.196 12.021 7.067-12.021h2.77l.026 18.136H18.58zm21.667 0v-2.824H30.023v-5h8.749v-2.773h-8.75v-4.715h9.863v-2.824H26.658v18.136h13.59z" fill="#64708B"/><path fill-rule="evenodd" clip-rule="evenodd" d="M66.61 24.872l-1.786 4.197h-3.469l8.154-18.136h3.314l8.18 18.136h-3.521l-1.812-4.197h-9.06zm7.947-2.643L71.14 14.3l-3.391 7.928h6.808z" fill="#64708B"/><path d="M108.554 11.027l-6.005 18.136h-3.573L94.5 15.743l-4.556 13.42h-3.598L80.34 11.027h3.495l4.504 13.783 4.685-13.783h3.106l4.582 13.86 4.633-13.86h3.21z" fill="#64708B"/><path fill-rule="evenodd" clip-rule="evenodd" d="M113.406 24.966l-1.786 4.197h-3.468l8.154-18.136h3.312l8.18 18.136h-3.52l-1.812-4.197h-9.06zm7.947-2.643l-3.417-7.928-3.391 7.928h6.808z" fill="#64708B"/><path d="M132.869 13.877h-6.006v-2.85h15.376v2.85h-6.006v15.286h-3.364V13.877zm15.823 0h-6.005v-2.85h15.376v2.85h-6.006v15.286h-3.365V13.877z" fill="#64708B"/></svg>