<svg width="85" height="158" viewBox="0 0 85 158" fill="none" xmlns="http://www.w3.org/2000/svg">
<path d="M5.08612 31.805L5.61705 32.308L8.27162 31.7771L9.05405 30.5756L9.12389 29.2624L10.032 28.1727L11.7645 26.6219L12.6866 26.5381L13.4271 25.602L18.5547 25.7278L18.0237 25.4484L17.9678 24.4425L18.9878 24.3726L18.6804 23.7439L19.4069 23.1711L19.5885 22.2071L20.4548 22.4027L20.4268 21.7182L21.0975 21.7042L20.846 20.7682L22.4387 20.0696L23.1373 18.0019L25.3308 18.2395L25.9176 16.2137L26.9236 16.4093L27.4824 14.16L28.3347 14.3835L28.6002 12.1622L29.5363 12.3019L29.0892 11.31L29.4664 9.85702L29.9414 9.71731L29.7458 11.0445L31.8835 10.5695L32.0511 9.98275L30.7658 10.3879L30.9474 8.97686L31.3805 8.9629L31.7577 8.01289L33.3645 7.97097L33.7137 6.67169L34.1608 6.53198L35.1249 7.55185L37.2765 4.84154L38.7575 5.86139L41.0767 6.4761L41.412 5.67977L42.3901 5.27461L42.8232 3.79373L45.2821 4.33859L45.4079 2.57827L47.4617 1.29297L48.1603 1.76797L48.1743 3.75181L51.1781 3.6121L51.8627 5.83345L54.2379 7.21656L54.6151 8.87907L56.124 8.7673L55.7747 11.296L54.196 13.9924L53.8048 16.0321L57.0461 17.988L56.9344 20.7402L59.2956 20.7821L60.1199 21.4248L61.7825 23.1292L60.9861 23.4226L61.1817 23.8697L60.4272 23.7858L61.9502 25.155L61.9781 24.7778L62.9282 24.8616L62.9421 25.9094L64.6886 26.2307L65.1496 27.4601L66.5049 28.4381L66.9659 28.4102L67.6365 26.9991L70.2073 26.1469L70.0396 29.3462L70.7103 29.2065L71.4647 32.5036L72.3449 32.3778L72.0655 31.2881L73.3509 30.883L73.4068 32.5175L74.1612 33.4396L71.8699 34.4595L71.5625 36.0521L72.331 36.6529L71.5206 36.7507L71.7162 37.5051L71.0735 38.7345L73.5325 39.4331L74.1333 42.4088L73.5186 43.2052L72.2751 42.3809L70.822 44.7559L69.2013 43.6941L68.5726 43.6522L68.377 44.225L67.8601 44.2949L67.902 45.7199L69.0756 48.8912L68.3212 49.1567L68.2373 50.0089L67.7763 50.0927L67.8042 52.2023L68.4329 52.342L68.9359 51.7832L70.1654 53.2501L71.5346 53.0685L70.8779 54.256L71.5346 56.0862L71.353 56.9523L73.0715 60.0399L73.5465 59.1877L76.3687 59.6767L75.1672 62.0237L76.5643 62.3031L79.2608 65.1113L80.1969 64.9576L80.4903 63.8259L81.3705 63.6443L81.4683 64.9296L80.0293 66.4105L80.2528 66.9833L78.0313 67.2907L78.185 69.6238L80.2668 71.1606L80.3087 72.5716L80.2109 73.3819L79.652 73.0327L79.2608 74.304L78.4505 74.6812L77.7659 76.0224L79.4844 77.643L79.3447 79.4592L78.5064 80.2276L77.6122 79.1099L76.8158 79.557L76.8018 81.9879L78.9954 82.6026L78.702 83.3291L78.0593 83.2872L77.6821 84.335L77.1092 85.1592L77.4026 86.0255L78.1711 85.6901L79.4285 86.2769L80.0153 86.0394L81.0352 87.185L82.125 86.7659L81.3286 89.3505L80.3087 89.7696L80.3925 90.3564L81.133 90.4821L81.147 91.0828L80.3925 91.2225L80.4624 92.0328L81.7897 92.5358L82.5861 94.1424L82.2647 95.3579L82.7956 96.3219L82.7397 97.6351L82.111 98.5991L83.2846 99.9542L82.4464 100.667L82.9493 102.315L83.8156 102.218L84.1229 102.609L84.4163 104.257L83.7177 104.97L82.3625 105.361L81.3566 104.648L80.7139 104.746L80.5043 104.132L79.4425 104.984L78.7579 103.629L78.8277 105.389L77.6681 106.199L77.8078 106.716L76.9276 107.61L75.7819 107.107L74.9576 107.666L72.2471 105.654L71.8559 106.129L70.0955 106.437L70.2772 108.015L69.2992 108.979L67.2034 107.596L67.3292 108.923L65.96 108.323L65.2893 108.896L65.6805 110.111L64.6606 111.34L65.5827 112.612L62.6906 112.737L59.9662 117.096L60.8464 117.655L60.567 118.438L61.6567 119.821L61.6148 120.994L60.5809 122L60.4692 124.473L61.6288 126.261L61.6707 129.265V130.075L61.3773 131.193L62.1458 132.38L61.1398 133.875L61.2516 134.378L60.3155 134.49L60.3574 135.202L61.3354 136.334L60.7765 137.284L61.545 139.45L60.3434 141.056L59.5471 144.227L58.597 144.311L58.1778 145.904L57.0741 146.421L55.2159 144.744L53.5533 144.772L53.176 145.848L54.4474 147.594L53.5533 148.866L49.6971 147.622L48.5655 148.097L47.5036 149.355L45.9668 149.425L41.929 148.461L41.4819 147.203L40.4061 148.097L38.5339 148.195L37.3184 150.081L36.2426 150.57L34.3844 149.327L33.4483 147.622L33.7277 146.03L32.7078 145.639L31.5062 146.672L32.3445 148.754L31.5482 150.193L30.5981 150.053L30.1091 147.846L29.159 147.217L28.7399 147.832L29.6201 148.698L29.8297 149.732L29.676 150.724L29.1031 151.213L27.9435 151.171L25.8198 149.117L24.7161 149.103L24.0175 149.634L23.8219 150.375L24.269 150.961L26.5743 150.612L26.8258 151.716L28.209 152.973L28.4884 153.923L27.706 154.496L25.8059 154.538L24.6881 153.057L23.5984 152.987L23.4447 153.895L24.3109 156.186L23.0535 156.913L20.8041 156.452L17.6465 150.333L15.6206 150.822L15.2574 150.165L14.0139 150.57L12.7704 148.978L12.2535 150.458L11.6947 150.472L11.9322 149.369L10.5909 148.628L11.6248 147.329L10.8843 147.441L10.0041 145.625L8.52312 144.786L9.93424 144.283L9.72467 143.822L8.35547 143.655L9.26361 142.481L7.48922 143.012L7.71277 141.391L6.34357 141.489L6.28767 140.386L5.42145 140.525L5.1979 140.092L6.0362 139.338L5.5891 138.527L6.20385 136.558L5.22585 135.426L6.13399 135.677L6.25975 135.342L5.54718 134.797L5.8406 133.722L4.86259 133.47L4.49932 132.227L4.84861 131.905L5.79868 132.744L5.35158 131.095L6.39945 131.444L6.88846 130.83L5.77073 130.634L4.96038 128.399L4.24785 128.021L4.77875 126.331L4.37358 125.102L5.1979 124.166L4.66699 123.984L3.92649 124.557L3.3816 123.537H3.95443L3.81473 122.349L4.47139 120.994L3.04629 119.653L4.70891 118.857L3.36763 118.521L3.08821 117.949L3.73089 117.46L4.55522 117.739L4.83465 117.236L4.03826 116.063L4.48536 115.252L3.40955 113.827L4.82068 112.556L3.71692 112.276L4.26181 110.614L3.92649 108.49L4.28976 108.113L3.61913 106.213L4.62506 106.059L3.61913 105.319L3.84266 104.607L3.36763 103.531L3.85664 102.455L3.6331 101.854L4.20593 101.729L4.26181 100.122L6.18988 100.15L6.14797 99.4094L6.83256 98.7528L6.12002 97.7189L6.74873 97.8447L6.46931 97.1042L6.97228 96.8807L6.38548 96.2381L6.4274 95.2182L5.36557 94.1983L5.37953 92.6476L6.14797 92.7593L5.65896 91.8373L6.16193 91.1108L5.10011 90.4681L5.70087 88.8336L3.85664 86.6681L3.73089 82.9938L1.41163 80.7724L2.9904 77.9503L3.96842 77.3496L4.28976 78.0901L5.0023 77.8386L4.47139 75.7709L4.79273 75.1842L4.12211 73.6334L5.36557 72.5437L5.67292 71.6216L6.84655 71.7055L6.88846 70.5878L7.61498 70.2664L7.4613 69.3863L6.02221 67.7517L3.68897 66.2429L4.75082 64.5245L6.21783 63.6723L5.95237 61.5487L5.26776 61.1156L4.83465 59.006L3.04629 56.3237L4.16402 54.7729L2.24991 53.781L2.16608 53.306L0.936584 52.6913V52.1185L2.4036 50.931L1.49546 48.3045L1.64914 46.8795L2.58523 46.153L2.64111 45.4963L4.13607 45.6221L4.62506 43.8757L3.03231 43.275L4.0243 42.4507L4.91847 42.4088L4.94642 41.7103H5.37953L5.15598 40.6764L4.20593 40.0198L4.16402 37.8544L7.601 37.6169V36.8066L5.75677 35.3955L6.16193 34.5573L5.1979 34.5992L4.55522 33.8029L4.98833 33.3977L4.68096 32.2242L5.08612 31.805Z" fill="#D7E0F3" stroke="white"/>
</svg>
