<svg width="80" height="12" viewBox="0 0 80 12" fill="none" xmlns="http://www.w3.org/2000/svg">
<path d="M2.25 0.272727L4.33807 3.68608H4.40625L6.49432 0.272727H8.01989L5.30114 4.63636L8.03693 9H6.50284L4.40625 5.63352H4.33807L2.24148 9H0.707386L3.49006 4.63636L0.724432 0.272727H2.25ZM12.897 7.4233L15.0107 2.45455H16.1101L13.37 9H12.424L9.73935 2.45455H10.826L12.897 7.4233ZM10.4723 2.45455V9H9.22372V2.45455H10.4723ZM15.3558 9V2.45455H16.5959V9H15.3558ZM21.1151 9.1321C20.4702 9.1321 19.9148 8.99432 19.4489 8.71875C18.9858 8.44034 18.6278 8.04972 18.375 7.54688C18.125 7.04119 18 6.44886 18 5.76989C18 5.09943 18.125 4.50852 18.375 3.99716C18.6278 3.4858 18.9801 3.08665 19.4318 2.79972C19.8864 2.51278 20.4176 2.36932 21.0256 2.36932C21.3949 2.36932 21.7528 2.4304 22.0994 2.55256C22.446 2.67472 22.7571 2.86648 23.0327 3.12784C23.3082 3.3892 23.5256 3.72869 23.6847 4.14631C23.8438 4.56108 23.9233 5.06534 23.9233 5.65909V6.1108H18.7202V5.15625H22.6747C22.6747 4.82102 22.6065 4.52415 22.4702 4.26562C22.3338 4.00426 22.142 3.7983 21.8949 3.64773C21.6506 3.49716 21.3636 3.42188 21.0341 3.42188C20.6761 3.42188 20.3636 3.50994 20.0966 3.68608C19.8324 3.85937 19.6278 4.08665 19.483 4.3679C19.3409 4.64631 19.2699 4.94886 19.2699 5.27557V6.02131C19.2699 6.45881 19.3466 6.83097 19.5 7.13778C19.6562 7.4446 19.8736 7.67898 20.152 7.84091C20.4304 8 20.7557 8.07955 21.1278 8.07955C21.3693 8.07955 21.5895 8.04545 21.7884 7.97727C21.9872 7.90625 22.1591 7.80114 22.304 7.66193C22.4489 7.52273 22.5597 7.35085 22.6364 7.14631L23.8423 7.36364C23.7457 7.71875 23.5724 8.02983 23.3224 8.29688C23.0753 8.56108 22.7642 8.76705 22.3892 8.91477C22.017 9.05966 21.5923 9.1321 21.1151 9.1321ZM24.8214 9L24.8171 7.89631H25.0515C25.2333 7.89631 25.3853 7.85795 25.5075 7.78125C25.6325 7.7017 25.7347 7.56818 25.8143 7.38068C25.8938 7.19318 25.9549 6.93466 25.9975 6.60511C26.0401 6.27273 26.0714 5.85511 26.0913 5.35227L26.2063 2.45455H30.7745V9H29.5259V3.55398H27.3867L27.2844 5.77841C27.2589 6.31818 27.2035 6.78977 27.1183 7.19318C27.0359 7.59659 26.9151 7.93324 26.756 8.20312C26.5969 8.47017 26.3924 8.67045 26.1424 8.80398C25.8924 8.93466 25.5884 9 25.2305 9H24.8214ZM33.4325 4.70455H35.3331C36.1342 4.70455 36.7507 4.90341 37.1825 5.30114C37.6143 5.69886 37.8303 6.21165 37.8303 6.83949C37.8303 7.24858 37.7337 7.61648 37.5405 7.94318C37.3473 8.26989 37.0646 8.52841 36.6925 8.71875C36.3203 8.90625 35.8672 9 35.3331 9H32.4737V2.45455H33.7223V7.90057H35.3331C35.6996 7.90057 36.0007 7.8054 36.2365 7.61506C36.4723 7.42188 36.5902 7.17614 36.5902 6.87784C36.5902 6.5625 36.4723 6.3054 36.2365 6.10653C36.0007 5.90483 35.6996 5.80398 35.3331 5.80398H33.4325V4.70455ZM43.695 5.17756V6.28125H40.1495V5.17756H43.695ZM40.5075 2.45455V9H39.2589V2.45455H40.5075ZM44.5856 2.45455V9H43.3413V2.45455H44.5856ZM47.5387 7.21449L50.4237 2.45455H51.7958V9H50.5472V4.2358L47.6751 9H46.2901V2.45455H47.5387V7.21449ZM58.8484 2.45455V7.95597H59.8072V11.1094H58.5501V9H53.5089V2.45455H54.7575V7.90057H57.604V2.45455H58.8484ZM62.1786 4.70455H64.0792C64.8803 4.70455 65.4968 4.90341 65.9286 5.30114C66.3604 5.69886 66.5763 6.21165 66.5763 6.83949C66.5763 7.24858 66.4798 7.61648 66.2866 7.94318C66.0934 8.26989 65.8107 8.52841 65.4386 8.71875C65.0664 8.90625 64.6133 9 64.0792 9H61.2198V2.45455H62.4684V7.90057H64.0792C64.4457 7.90057 64.7468 7.8054 64.9826 7.61506C65.2184 7.42188 65.3363 7.17614 65.3363 6.87784C65.3363 6.5625 65.2184 6.3054 64.9826 6.10653C64.7468 5.90483 64.4457 5.80398 64.0792 5.80398H62.1786V4.70455ZM68.005 9V2.45455H69.2791V5.19886H69.8928L72.0533 2.45455H73.63L71.0945 5.63778L73.6598 9H72.0788L70.1058 6.38352H69.2791V9H68.005ZM76.5543 9.14489C76.1396 9.14489 75.7646 9.06818 75.4293 8.91477C75.0941 8.75852 74.8285 8.53267 74.6325 8.23722C74.4393 7.94176 74.3427 7.57955 74.3427 7.15057C74.3427 6.78125 74.4137 6.47727 74.5558 6.23864C74.6978 6 74.8896 5.81108 75.131 5.67188C75.3725 5.53267 75.6424 5.42756 75.9407 5.35653C76.239 5.28551 76.543 5.23153 76.8526 5.1946C77.2447 5.14915 77.5629 5.11222 77.8072 5.08381C78.0515 5.05256 78.229 5.00284 78.3398 4.93466C78.4506 4.86648 78.506 4.75568 78.506 4.60227V4.57244C78.506 4.20028 78.4009 3.91193 78.1907 3.70739C77.9833 3.50284 77.6737 3.40057 77.2617 3.40057C76.8327 3.40057 76.4947 3.49574 76.2475 3.68608C76.0032 3.87358 75.8342 4.08239 75.7404 4.3125L74.543 4.03977C74.685 3.64205 74.8924 3.32102 75.1651 3.0767C75.4407 2.82955 75.7575 2.65057 76.1154 2.53977C76.4734 2.42614 76.8498 2.36932 77.2447 2.36932C77.506 2.36932 77.783 2.40057 78.0756 2.46307C78.3711 2.52273 78.6467 2.63352 78.9023 2.79545C79.1609 2.95739 79.3725 3.18892 79.5373 3.49006C79.7021 3.78835 79.7844 4.17614 79.7844 4.65341V9H78.5401V8.10511H78.489C78.4066 8.26989 78.283 8.43182 78.1183 8.59091C77.9535 8.75 77.7418 8.8821 77.4833 8.98722C77.2248 9.09233 76.9151 9.14489 76.5543 9.14489ZM76.8313 8.12216C77.1836 8.12216 77.4847 8.05256 77.7347 7.91335C77.9876 7.77415 78.1793 7.59233 78.31 7.3679C78.4435 7.14062 78.5103 6.89773 78.5103 6.6392V5.79545C78.4648 5.84091 78.3768 5.88352 78.2461 5.9233C78.1183 5.96023 77.9719 5.9929 77.8072 6.02131C77.6424 6.04687 77.4819 6.07102 77.3256 6.09375C77.1694 6.11364 77.0387 6.13068 76.9336 6.14489C76.6864 6.17614 76.4606 6.22869 76.256 6.30256C76.0543 6.37642 75.8924 6.48295 75.7702 6.62216C75.6509 6.75852 75.5913 6.94034 75.5913 7.16761C75.5913 7.48295 75.7077 7.72159 75.9407 7.88352C76.1737 8.04261 76.4705 8.12216 76.8313 8.12216Z" fill="#64708B"/>
</svg>
